%TF.GenerationSoftware,KiCad,Pcbnew,9.0.6*%
%TF.CreationDate,2025-12-21T17:34:40-08:00*%
%TF.ProjectId,A3909 Prototyping,41333930-3920-4507-926f-746f74797069,rev?*%
%TF.SameCoordinates,Original*%
%TF.FileFunction,Copper,L2,Bot*%
%TF.FilePolarity,Positive*%
%FSLAX46Y46*%
G04 Gerber Fmt 4.6, Leading zero omitted, Abs format (unit mm)*
G04 Created by KiCad (PCBNEW 9.0.6) date 2025-12-21 17:34:40*
%MOMM*%
%LPD*%
G01*
G04 APERTURE LIST*
%TA.AperFunction,ComponentPad*%
%ADD10C,1.700000*%
%TD*%
%TA.AperFunction,ComponentPad*%
%ADD11R,1.700000X1.700000*%
%TD*%
%TA.AperFunction,ViaPad*%
%ADD12C,0.700000*%
%TD*%
%TA.AperFunction,Conductor*%
%ADD13C,0.300000*%
%TD*%
%TA.AperFunction,Conductor*%
%ADD14C,0.500000*%
%TD*%
G04 APERTURE END LIST*
D10*
%TO.P,J1,16,Pin_16*%
%TO.N,/E SET OUT*%
X63250000Y-73462500D03*
%TO.P,J1,15,Pin_15*%
%TO.N,/E RESET OUT*%
X63250000Y-70922500D03*
%TO.P,J1,14,Pin_14*%
%TO.N,/F SET OUT*%
X63250000Y-68382500D03*
%TO.P,J1,13,Pin_13*%
%TO.N,/F RESET OUT*%
X63250000Y-65842500D03*
%TO.P,J1,12,Pin_12*%
%TO.N,/G SET OUT*%
X63250000Y-63302500D03*
%TO.P,J1,11,Pin_11*%
%TO.N,/G RESET OUT*%
X63250000Y-60762500D03*
%TO.P,J1,10,Pin_10*%
%TO.N,/H SET OUT*%
X63250000Y-58222500D03*
%TO.P,J1,9,Pin_9*%
%TO.N,/H RESET OUT*%
X63250000Y-55682500D03*
%TO.P,J1,8,Pin_8*%
%TO.N,/A SET OUT*%
X63250000Y-53142500D03*
%TO.P,J1,7,Pin_7*%
%TO.N,/A RESET OUT*%
X63250000Y-50602500D03*
%TO.P,J1,6,Pin_6*%
%TO.N,/B SET OUT*%
X63250000Y-48062500D03*
%TO.P,J1,5,Pin_5*%
%TO.N,/B RESET OUT*%
X63250000Y-45522500D03*
%TO.P,J1,4,Pin_4*%
%TO.N,/C SET OUT*%
X63250000Y-42982500D03*
%TO.P,J1,3,Pin_3*%
%TO.N,/C RESET OUT*%
X63250000Y-40442500D03*
%TO.P,J1,2,Pin_2*%
%TO.N,/D SET OUT*%
X63250000Y-37902500D03*
D11*
%TO.P,J1,1,Pin_1*%
%TO.N,/D RESET OUT*%
X63250000Y-35362500D03*
%TD*%
D10*
%TO.P,J2,4,Pin_4*%
%TO.N,GND*%
X57810000Y-22750000D03*
%TO.P,J2,3,Pin_3*%
X55270000Y-22750000D03*
%TO.P,J2,2,Pin_2*%
%TO.N,+12V*%
X52730000Y-22750000D03*
D11*
%TO.P,J2,1,Pin_1*%
X50190000Y-22750000D03*
%TD*%
D10*
%TO.P,J3,8,Pin_8*%
%TO.N,GND*%
X28500000Y-61790000D03*
%TO.P,J3,7,Pin_7*%
%TO.N,/OEINV*%
X28500000Y-59250000D03*
%TO.P,J3,6,Pin_6*%
%TO.N,/SER OUT*%
X28500000Y-56710000D03*
%TO.P,J3,5,Pin_5*%
%TO.N,/SER*%
X28500000Y-54170000D03*
%TO.P,J3,4,Pin_4*%
%TO.N,/RCLK*%
X28500000Y-51630000D03*
%TO.P,J3,3,Pin_3*%
%TO.N,/SRCLRINV*%
X28500000Y-49090000D03*
%TO.P,J3,2,Pin_2*%
%TO.N,/SRCLK*%
X28500000Y-46550000D03*
D11*
%TO.P,J3,1,Pin_1*%
%TO.N,VCC*%
X28500000Y-44010000D03*
%TD*%
D12*
%TO.N,GND*%
X46750000Y-67750000D03*
X45750000Y-37000000D03*
X55575000Y-45325000D03*
X57750000Y-38500000D03*
X41000000Y-54000000D03*
X46750000Y-46750000D03*
X53500000Y-32500000D03*
X52000000Y-76250000D03*
X55000000Y-32575000D03*
X41000000Y-53250000D03*
X52250000Y-31250000D03*
X52250000Y-32250000D03*
X52575000Y-42325000D03*
X52250000Y-30250000D03*
X51075000Y-42325000D03*
X54000000Y-55750000D03*
X55575000Y-66325000D03*
X53500000Y-76250000D03*
X51075000Y-63325000D03*
X29000000Y-29750000D03*
X55500000Y-55750000D03*
X41000000Y-54750000D03*
X35250000Y-68000000D03*
X54075000Y-45325000D03*
X29000000Y-31250000D03*
X58000000Y-70000000D03*
X51000000Y-52750000D03*
X45750000Y-58000000D03*
X40000000Y-48500000D03*
X54075000Y-66325000D03*
X52575000Y-63325000D03*
X52500000Y-52750000D03*
X30500000Y-29750000D03*
X46740380Y-40490380D03*
X57750000Y-49000000D03*
X46500000Y-61500000D03*
X57750000Y-59500000D03*
X30500000Y-31250000D03*
%TO.N,VBB*%
X48500000Y-70425000D03*
X44750000Y-26500000D03*
X48603583Y-59925000D03*
X45500000Y-32500000D03*
X44750000Y-28500000D03*
X46000000Y-30500000D03*
X47990380Y-39240380D03*
X44750000Y-27500000D03*
X44250000Y-32500000D03*
X48750000Y-49250000D03*
X46000000Y-31500000D03*
%TO.N,/SER*%
X35780331Y-46719669D03*
X34500000Y-48000000D03*
%TO.N,/SRCLK*%
X32000000Y-45500000D03*
X35750000Y-59780000D03*
X35750000Y-58250000D03*
X33500000Y-44000000D03*
X34747017Y-51758949D03*
%TO.N,/OEINV*%
X35250000Y-48750000D03*
X32750000Y-51250000D03*
X36500000Y-45000000D03*
X30500000Y-57360000D03*
%TO.N,/RCLK*%
X35065687Y-49934313D03*
X33562500Y-46937500D03*
X34780331Y-45719669D03*
X34500000Y-58250000D03*
X34500000Y-59780000D03*
%TO.N,/SRCLRINV*%
X32750000Y-46250000D03*
X35500000Y-50750000D03*
X37000000Y-58250000D03*
X37000000Y-59780000D03*
X34500000Y-42000000D03*
%TO.N,/QH'*%
X42000000Y-45750000D03*
X41250000Y-59500000D03*
X42000000Y-48250000D03*
X42000000Y-57500000D03*
%TO.N,VCC*%
X41250000Y-68000000D03*
X42250000Y-67000000D03*
%TD*%
D13*
%TO.N,/SER*%
X34500000Y-48000000D02*
X35780331Y-46719669D01*
%TO.N,/SRCLK*%
X32000000Y-45500000D02*
X33500000Y-44000000D01*
X34747017Y-51758949D02*
X34747017Y-51747017D01*
X34747017Y-51747017D02*
X32000000Y-49000000D01*
X35750000Y-58250000D02*
X35750000Y-59780000D01*
X32000000Y-49000000D02*
X32000000Y-45500000D01*
%TO.N,/OEINV*%
X36500000Y-47500000D02*
X36500000Y-45000000D01*
X30500000Y-53500000D02*
X32750000Y-51250000D01*
X30500000Y-57360000D02*
X30500000Y-53500000D01*
X35250000Y-48750000D02*
X36500000Y-47500000D01*
%TO.N,/RCLK*%
X34500000Y-58250000D02*
X34500000Y-59780000D01*
X34780331Y-45719669D02*
X33562500Y-46937500D01*
X34934313Y-49934313D02*
X33562500Y-48562500D01*
X33562500Y-48562500D02*
X33562500Y-46937500D01*
X35065687Y-49934313D02*
X34934313Y-49934313D01*
%TO.N,/SRCLRINV*%
X32750000Y-46250000D02*
X34500000Y-44500000D01*
X32750000Y-48750000D02*
X32750000Y-46250000D01*
X35500000Y-50750000D02*
X34750000Y-50750000D01*
X34750000Y-50750000D02*
X32750000Y-48750000D01*
X37000000Y-58250000D02*
X37000000Y-59780000D01*
X34500000Y-44500000D02*
X34500000Y-42000000D01*
%TO.N,/QH'*%
X42000000Y-58750000D02*
X41250000Y-59500000D01*
X42000000Y-57500000D02*
X42000000Y-58750000D01*
X42000000Y-45750000D02*
X42000000Y-48250000D01*
D14*
%TO.N,VCC*%
X42250000Y-67000000D02*
X41250000Y-68000000D01*
%TD*%
%TA.AperFunction,Conductor*%
%TO.N,GND*%
G36*
X62753736Y-20500726D02*
G01*
X63043796Y-20518271D01*
X63058659Y-20520076D01*
X63340798Y-20571780D01*
X63355335Y-20575363D01*
X63629172Y-20660695D01*
X63643163Y-20666000D01*
X63904743Y-20783727D01*
X63917989Y-20790680D01*
X64163465Y-20939075D01*
X64175776Y-20947573D01*
X64401573Y-21124473D01*
X64412781Y-21134403D01*
X64615596Y-21337218D01*
X64625526Y-21348426D01*
X64745481Y-21501538D01*
X64802422Y-21574217D01*
X64810926Y-21586537D01*
X64869091Y-21682753D01*
X64959316Y-21832004D01*
X64966275Y-21845263D01*
X65083997Y-22106831D01*
X65089306Y-22120832D01*
X65174635Y-22394663D01*
X65178219Y-22409201D01*
X65229923Y-22691340D01*
X65231728Y-22706205D01*
X65249274Y-22996263D01*
X65249500Y-23003750D01*
X65249500Y-77996249D01*
X65249274Y-78003736D01*
X65231728Y-78293794D01*
X65229923Y-78308659D01*
X65178219Y-78590798D01*
X65174635Y-78605336D01*
X65089306Y-78879167D01*
X65083997Y-78893168D01*
X64966275Y-79154736D01*
X64959316Y-79167995D01*
X64810928Y-79413459D01*
X64802422Y-79425782D01*
X64625526Y-79651573D01*
X64615596Y-79662781D01*
X64412781Y-79865596D01*
X64401573Y-79875526D01*
X64175782Y-80052422D01*
X64163459Y-80060928D01*
X63917995Y-80209316D01*
X63904736Y-80216275D01*
X63643168Y-80333997D01*
X63629167Y-80339306D01*
X63355336Y-80424635D01*
X63340798Y-80428219D01*
X63058659Y-80479923D01*
X63043794Y-80481728D01*
X62753736Y-80499274D01*
X62746249Y-80499500D01*
X28753751Y-80499500D01*
X28746264Y-80499274D01*
X28456205Y-80481728D01*
X28441340Y-80479923D01*
X28159201Y-80428219D01*
X28144663Y-80424635D01*
X27870832Y-80339306D01*
X27856831Y-80333997D01*
X27595263Y-80216275D01*
X27582004Y-80209316D01*
X27336540Y-80060928D01*
X27324217Y-80052422D01*
X27098426Y-79875526D01*
X27087218Y-79865596D01*
X26884403Y-79662781D01*
X26874473Y-79651573D01*
X26697573Y-79425776D01*
X26689075Y-79413465D01*
X26540680Y-79167989D01*
X26533727Y-79154743D01*
X26416000Y-78893163D01*
X26410693Y-78879167D01*
X26325364Y-78605336D01*
X26321780Y-78590798D01*
X26270076Y-78308659D01*
X26268271Y-78293794D01*
X26250726Y-78003736D01*
X26250500Y-77996249D01*
X26250500Y-77893713D01*
X27399500Y-77893713D01*
X27399500Y-78106286D01*
X27432753Y-78316239D01*
X27498444Y-78518414D01*
X27594951Y-78707820D01*
X27719890Y-78879786D01*
X27870213Y-79030109D01*
X28042179Y-79155048D01*
X28042181Y-79155049D01*
X28042184Y-79155051D01*
X28231588Y-79251557D01*
X28433757Y-79317246D01*
X28643713Y-79350500D01*
X28643714Y-79350500D01*
X28856286Y-79350500D01*
X28856287Y-79350500D01*
X29066243Y-79317246D01*
X29268412Y-79251557D01*
X29457816Y-79155051D01*
X29479789Y-79139086D01*
X29629786Y-79030109D01*
X29629788Y-79030106D01*
X29629792Y-79030104D01*
X29780104Y-78879792D01*
X29780106Y-78879788D01*
X29780109Y-78879786D01*
X29905048Y-78707820D01*
X29905047Y-78707820D01*
X29905051Y-78707816D01*
X30001557Y-78518412D01*
X30067246Y-78316243D01*
X30100500Y-78106287D01*
X30100500Y-77893713D01*
X61399500Y-77893713D01*
X61399500Y-78106286D01*
X61432753Y-78316239D01*
X61498444Y-78518414D01*
X61594951Y-78707820D01*
X61719890Y-78879786D01*
X61870213Y-79030109D01*
X62042179Y-79155048D01*
X62042181Y-79155049D01*
X62042184Y-79155051D01*
X62231588Y-79251557D01*
X62433757Y-79317246D01*
X62643713Y-79350500D01*
X62643714Y-79350500D01*
X62856286Y-79350500D01*
X62856287Y-79350500D01*
X63066243Y-79317246D01*
X63268412Y-79251557D01*
X63457816Y-79155051D01*
X63479789Y-79139086D01*
X63629786Y-79030109D01*
X63629788Y-79030106D01*
X63629792Y-79030104D01*
X63780104Y-78879792D01*
X63780106Y-78879788D01*
X63780109Y-78879786D01*
X63905048Y-78707820D01*
X63905047Y-78707820D01*
X63905051Y-78707816D01*
X64001557Y-78518412D01*
X64067246Y-78316243D01*
X64100500Y-78106287D01*
X64100500Y-77893713D01*
X64067246Y-77683757D01*
X64001557Y-77481588D01*
X63905051Y-77292184D01*
X63905049Y-77292181D01*
X63905048Y-77292179D01*
X63780109Y-77120213D01*
X63629786Y-76969890D01*
X63457820Y-76844951D01*
X63268414Y-76748444D01*
X63268413Y-76748443D01*
X63268412Y-76748443D01*
X63066243Y-76682754D01*
X63066241Y-76682753D01*
X63066240Y-76682753D01*
X62904957Y-76657208D01*
X62856287Y-76649500D01*
X62643713Y-76649500D01*
X62595042Y-76657208D01*
X62433760Y-76682753D01*
X62231585Y-76748444D01*
X62042179Y-76844951D01*
X61870213Y-76969890D01*
X61719890Y-77120213D01*
X61594951Y-77292179D01*
X61498444Y-77481585D01*
X61432753Y-77683760D01*
X61399500Y-77893713D01*
X30100500Y-77893713D01*
X30067246Y-77683757D01*
X30001557Y-77481588D01*
X29905051Y-77292184D01*
X29905049Y-77292181D01*
X29905048Y-77292179D01*
X29780109Y-77120213D01*
X29629786Y-76969890D01*
X29457820Y-76844951D01*
X29268414Y-76748444D01*
X29268413Y-76748443D01*
X29268412Y-76748443D01*
X29066243Y-76682754D01*
X29066241Y-76682753D01*
X29066240Y-76682753D01*
X28904957Y-76657208D01*
X28856287Y-76649500D01*
X28643713Y-76649500D01*
X28595042Y-76657208D01*
X28433760Y-76682753D01*
X28231585Y-76748444D01*
X28042179Y-76844951D01*
X27870213Y-76969890D01*
X27719890Y-77120213D01*
X27594951Y-77292179D01*
X27498444Y-77481585D01*
X27432753Y-77683760D01*
X27399500Y-77893713D01*
X26250500Y-77893713D01*
X26250500Y-68064071D01*
X40599499Y-68064071D01*
X40624497Y-68189738D01*
X40624499Y-68189744D01*
X40673533Y-68308124D01*
X40673538Y-68308133D01*
X40744723Y-68414668D01*
X40744726Y-68414672D01*
X40835327Y-68505273D01*
X40835331Y-68505276D01*
X40941866Y-68576461D01*
X40941872Y-68576464D01*
X40941873Y-68576465D01*
X41060256Y-68625501D01*
X41060260Y-68625501D01*
X41060261Y-68625502D01*
X41185928Y-68650500D01*
X41185931Y-68650500D01*
X41314071Y-68650500D01*
X41398615Y-68633682D01*
X41439744Y-68625501D01*
X41558127Y-68576465D01*
X41664669Y-68505276D01*
X41755276Y-68414669D01*
X41826465Y-68308127D01*
X41875501Y-68189744D01*
X41877280Y-68180798D01*
X41909664Y-68118887D01*
X41911161Y-68117362D01*
X42367308Y-67661215D01*
X42428629Y-67627732D01*
X42430768Y-67627286D01*
X42439744Y-67625501D01*
X42558127Y-67576465D01*
X42664669Y-67505276D01*
X42755276Y-67414669D01*
X42826465Y-67308127D01*
X42875501Y-67189744D01*
X42900500Y-67064069D01*
X42900500Y-66935931D01*
X42900500Y-66935928D01*
X42875502Y-66810261D01*
X42875501Y-66810260D01*
X42875501Y-66810256D01*
X42826465Y-66691873D01*
X42826464Y-66691872D01*
X42826461Y-66691866D01*
X42755276Y-66585331D01*
X42755273Y-66585327D01*
X42664672Y-66494726D01*
X42664668Y-66494723D01*
X42558133Y-66423538D01*
X42558124Y-66423533D01*
X42439744Y-66374499D01*
X42439738Y-66374497D01*
X42314071Y-66349500D01*
X42314069Y-66349500D01*
X42185931Y-66349500D01*
X42185929Y-66349500D01*
X42060261Y-66374497D01*
X42060255Y-66374499D01*
X41941875Y-66423533D01*
X41941866Y-66423538D01*
X41835331Y-66494723D01*
X41835327Y-66494726D01*
X41744726Y-66585327D01*
X41744723Y-66585331D01*
X41673538Y-66691866D01*
X41673533Y-66691876D01*
X41624500Y-66810252D01*
X41624499Y-66810255D01*
X41622718Y-66819208D01*
X41590329Y-66881117D01*
X41588783Y-66882690D01*
X41132690Y-67338783D01*
X41071367Y-67372268D01*
X41069208Y-67372718D01*
X41060255Y-67374499D01*
X41060252Y-67374500D01*
X40941876Y-67423533D01*
X40941866Y-67423538D01*
X40835331Y-67494723D01*
X40835327Y-67494726D01*
X40744726Y-67585327D01*
X40744723Y-67585331D01*
X40673538Y-67691866D01*
X40673533Y-67691875D01*
X40624499Y-67810255D01*
X40624497Y-67810261D01*
X40599500Y-67935928D01*
X40599500Y-67935931D01*
X40599500Y-68064069D01*
X40599500Y-68064071D01*
X40599499Y-68064071D01*
X26250500Y-68064071D01*
X26250500Y-61683753D01*
X27150000Y-61683753D01*
X27150000Y-61896246D01*
X27183242Y-62106127D01*
X27183242Y-62106130D01*
X27248904Y-62308217D01*
X27345375Y-62497550D01*
X27384728Y-62551716D01*
X28017037Y-61919408D01*
X28034075Y-61982993D01*
X28099901Y-62097007D01*
X28192993Y-62190099D01*
X28307007Y-62255925D01*
X28370590Y-62272962D01*
X27738282Y-62905269D01*
X27738282Y-62905270D01*
X27792449Y-62944624D01*
X27981782Y-63041095D01*
X28183870Y-63106757D01*
X28393754Y-63140000D01*
X28606246Y-63140000D01*
X28816127Y-63106757D01*
X28816130Y-63106757D01*
X29018217Y-63041095D01*
X29207554Y-62944622D01*
X29261716Y-62905270D01*
X29261717Y-62905270D01*
X28629408Y-62272962D01*
X28692993Y-62255925D01*
X28807007Y-62190099D01*
X28900099Y-62097007D01*
X28965925Y-61982993D01*
X28982962Y-61919409D01*
X29615270Y-62551717D01*
X29615270Y-62551716D01*
X29654622Y-62497554D01*
X29751095Y-62308217D01*
X29816757Y-62106130D01*
X29816757Y-62106127D01*
X29850000Y-61896246D01*
X29850000Y-61683753D01*
X29816757Y-61473872D01*
X29816757Y-61473869D01*
X29751095Y-61271782D01*
X29654624Y-61082449D01*
X29615270Y-61028282D01*
X29615269Y-61028282D01*
X28982962Y-61660590D01*
X28965925Y-61597007D01*
X28900099Y-61482993D01*
X28807007Y-61389901D01*
X28692993Y-61324075D01*
X28629409Y-61307037D01*
X29261716Y-60674728D01*
X29207550Y-60635375D01*
X29018217Y-60538904D01*
X28989292Y-60529506D01*
X28931616Y-60490068D01*
X28904418Y-60425710D01*
X28916333Y-60356863D01*
X28963577Y-60305388D01*
X28971315Y-60301090D01*
X29102994Y-60233996D01*
X29249501Y-60127553D01*
X29377553Y-59999501D01*
X29483996Y-59852994D01*
X29566211Y-59691639D01*
X29622171Y-59519409D01*
X29636765Y-59427259D01*
X29650500Y-59340551D01*
X29650500Y-59159448D01*
X29634019Y-59055397D01*
X29622171Y-58980591D01*
X29566519Y-58809309D01*
X29566212Y-58808363D01*
X29566211Y-58808360D01*
X29533644Y-58744446D01*
X29483996Y-58647006D01*
X29460453Y-58614602D01*
X29377558Y-58500505D01*
X29377554Y-58500500D01*
X29249499Y-58372445D01*
X29249494Y-58372441D01*
X29169154Y-58314071D01*
X33849499Y-58314071D01*
X33874497Y-58439738D01*
X33874499Y-58439744D01*
X33923533Y-58558124D01*
X33923538Y-58558133D01*
X33994723Y-58664668D01*
X33994725Y-58664671D01*
X34013179Y-58683124D01*
X34046666Y-58744446D01*
X34049500Y-58770807D01*
X34049500Y-59259192D01*
X34029815Y-59326231D01*
X34013181Y-59346873D01*
X33994726Y-59365327D01*
X33994723Y-59365331D01*
X33923538Y-59471866D01*
X33923533Y-59471875D01*
X33874499Y-59590255D01*
X33874497Y-59590261D01*
X33849500Y-59715928D01*
X33849500Y-59715931D01*
X33849500Y-59844069D01*
X33849500Y-59844071D01*
X33849499Y-59844071D01*
X33874497Y-59969738D01*
X33874499Y-59969744D01*
X33923533Y-60088124D01*
X33923538Y-60088133D01*
X33994723Y-60194668D01*
X33994726Y-60194672D01*
X34085327Y-60285273D01*
X34085331Y-60285276D01*
X34191866Y-60356461D01*
X34191875Y-60356466D01*
X34218692Y-60367574D01*
X34310256Y-60405501D01*
X34310260Y-60405501D01*
X34310261Y-60405502D01*
X34435928Y-60430500D01*
X34435931Y-60430500D01*
X34564071Y-60430500D01*
X34648615Y-60413682D01*
X34689744Y-60405501D01*
X34808127Y-60356465D01*
X34914669Y-60285276D01*
X35005276Y-60194669D01*
X35021898Y-60169793D01*
X35075510Y-60124988D01*
X35144835Y-60116281D01*
X35207863Y-60146435D01*
X35228102Y-60169793D01*
X35244723Y-60194668D01*
X35244726Y-60194672D01*
X35335327Y-60285273D01*
X35335331Y-60285276D01*
X35441866Y-60356461D01*
X35441875Y-60356466D01*
X35468692Y-60367574D01*
X35560256Y-60405501D01*
X35560260Y-60405501D01*
X35560261Y-60405502D01*
X35685928Y-60430500D01*
X35685931Y-60430500D01*
X35814071Y-60430500D01*
X35898615Y-60413682D01*
X35939744Y-60405501D01*
X36058127Y-60356465D01*
X36164669Y-60285276D01*
X36255276Y-60194669D01*
X36271898Y-60169793D01*
X36325510Y-60124988D01*
X36394835Y-60116281D01*
X36457863Y-60146435D01*
X36478102Y-60169793D01*
X36494723Y-60194668D01*
X36494726Y-60194672D01*
X36585327Y-60285273D01*
X36585331Y-60285276D01*
X36691866Y-60356461D01*
X36691875Y-60356466D01*
X36718692Y-60367574D01*
X36810256Y-60405501D01*
X36810260Y-60405501D01*
X36810261Y-60405502D01*
X36935928Y-60430500D01*
X36935931Y-60430500D01*
X37064071Y-60430500D01*
X37148615Y-60413682D01*
X37189744Y-60405501D01*
X37308127Y-60356465D01*
X37414669Y-60285276D01*
X37505276Y-60194669D01*
X37576465Y-60088127D01*
X37625501Y-59969744D01*
X37650500Y-59844069D01*
X37650500Y-59715931D01*
X37650500Y-59715928D01*
X37625502Y-59590261D01*
X37625501Y-59590260D01*
X37625501Y-59590256D01*
X37614655Y-59564071D01*
X40599499Y-59564071D01*
X40624497Y-59689738D01*
X40624499Y-59689744D01*
X40673533Y-59808124D01*
X40673538Y-59808133D01*
X40744723Y-59914668D01*
X40744726Y-59914672D01*
X40835327Y-60005273D01*
X40835331Y-60005276D01*
X40941866Y-60076461D01*
X40941872Y-60076464D01*
X40941873Y-60076465D01*
X41060256Y-60125501D01*
X41060260Y-60125501D01*
X41060261Y-60125502D01*
X41185928Y-60150500D01*
X41185931Y-60150500D01*
X41314071Y-60150500D01*
X41398615Y-60133682D01*
X41439744Y-60125501D01*
X41558127Y-60076465D01*
X41664669Y-60005276D01*
X41755276Y-59914669D01*
X41826465Y-59808127D01*
X41875501Y-59689744D01*
X41895532Y-59589046D01*
X41900500Y-59564071D01*
X41900500Y-59537965D01*
X41920185Y-59470926D01*
X41936819Y-59450284D01*
X42127911Y-59259192D01*
X42360489Y-59026614D01*
X42419799Y-58923887D01*
X42433032Y-58874499D01*
X42450500Y-58809309D01*
X42450500Y-58020807D01*
X42470185Y-57953768D01*
X42486821Y-57933124D01*
X42505274Y-57914671D01*
X42505276Y-57914669D01*
X42576465Y-57808127D01*
X42625501Y-57689744D01*
X42633682Y-57648615D01*
X42650500Y-57564071D01*
X42650500Y-57435928D01*
X42625502Y-57310261D01*
X42625501Y-57310260D01*
X42625501Y-57310256D01*
X42576465Y-57191873D01*
X42576464Y-57191872D01*
X42576461Y-57191866D01*
X42505276Y-57085331D01*
X42505273Y-57085327D01*
X42414672Y-56994726D01*
X42414668Y-56994723D01*
X42308133Y-56923538D01*
X42308124Y-56923533D01*
X42189744Y-56874499D01*
X42189738Y-56874497D01*
X42064071Y-56849500D01*
X42064069Y-56849500D01*
X41935931Y-56849500D01*
X41935929Y-56849500D01*
X41810261Y-56874497D01*
X41810255Y-56874499D01*
X41691875Y-56923533D01*
X41691866Y-56923538D01*
X41585331Y-56994723D01*
X41585327Y-56994726D01*
X41494726Y-57085327D01*
X41494723Y-57085331D01*
X41423538Y-57191866D01*
X41423533Y-57191875D01*
X41374499Y-57310255D01*
X41374497Y-57310261D01*
X41349500Y-57435928D01*
X41349500Y-57435931D01*
X41349500Y-57564069D01*
X41349500Y-57564071D01*
X41349499Y-57564071D01*
X41374497Y-57689738D01*
X41374499Y-57689744D01*
X41423533Y-57808124D01*
X41423538Y-57808133D01*
X41494723Y-57914668D01*
X41494725Y-57914671D01*
X41513179Y-57933124D01*
X41546666Y-57994446D01*
X41549500Y-58020807D01*
X41549500Y-58512035D01*
X41529815Y-58579074D01*
X41513181Y-58599716D01*
X41299716Y-58813181D01*
X41238393Y-58846666D01*
X41212035Y-58849500D01*
X41185929Y-58849500D01*
X41060261Y-58874497D01*
X41060255Y-58874499D01*
X40941875Y-58923533D01*
X40941866Y-58923538D01*
X40835331Y-58994723D01*
X40835327Y-58994726D01*
X40744726Y-59085327D01*
X40744723Y-59085331D01*
X40673538Y-59191866D01*
X40673533Y-59191875D01*
X40624499Y-59310255D01*
X40624497Y-59310261D01*
X40599500Y-59435928D01*
X40599500Y-59435931D01*
X40599500Y-59564069D01*
X40599500Y-59564071D01*
X40599499Y-59564071D01*
X37614655Y-59564071D01*
X37614654Y-59564069D01*
X37583839Y-59489673D01*
X37583836Y-59489669D01*
X37576465Y-59471873D01*
X37505276Y-59365331D01*
X37479025Y-59339080D01*
X37472725Y-59330028D01*
X37465006Y-59306927D01*
X37453334Y-59285550D01*
X37451184Y-59265555D01*
X37450584Y-59263759D01*
X37450869Y-59262633D01*
X37450500Y-59259192D01*
X37450500Y-58770807D01*
X37470185Y-58703768D01*
X37486821Y-58683124D01*
X37505274Y-58664671D01*
X37505276Y-58664669D01*
X37576465Y-58558127D01*
X37625501Y-58439744D01*
X37650500Y-58314069D01*
X37650500Y-58185931D01*
X37650500Y-58185928D01*
X37625502Y-58060261D01*
X37625501Y-58060260D01*
X37625501Y-58060256D01*
X37576465Y-57941873D01*
X37576464Y-57941872D01*
X37576461Y-57941866D01*
X37505276Y-57835331D01*
X37505273Y-57835327D01*
X37414672Y-57744726D01*
X37414668Y-57744723D01*
X37308133Y-57673538D01*
X37308124Y-57673533D01*
X37189744Y-57624499D01*
X37189738Y-57624497D01*
X37064071Y-57599500D01*
X37064069Y-57599500D01*
X36935931Y-57599500D01*
X36935929Y-57599500D01*
X36810261Y-57624497D01*
X36810255Y-57624499D01*
X36691875Y-57673533D01*
X36691866Y-57673538D01*
X36585331Y-57744723D01*
X36585327Y-57744726D01*
X36494726Y-57835327D01*
X36494721Y-57835334D01*
X36478101Y-57860207D01*
X36424488Y-57905012D01*
X36355163Y-57913718D01*
X36292136Y-57883562D01*
X36271899Y-57860207D01*
X36255278Y-57835334D01*
X36255273Y-57835327D01*
X36164672Y-57744726D01*
X36164668Y-57744723D01*
X36058133Y-57673538D01*
X36058124Y-57673533D01*
X35939744Y-57624499D01*
X35939738Y-57624497D01*
X35814071Y-57599500D01*
X35814069Y-57599500D01*
X35685931Y-57599500D01*
X35685929Y-57599500D01*
X35560261Y-57624497D01*
X35560255Y-57624499D01*
X35441875Y-57673533D01*
X35441866Y-57673538D01*
X35335331Y-57744723D01*
X35335327Y-57744726D01*
X35244726Y-57835327D01*
X35244721Y-57835334D01*
X35228101Y-57860207D01*
X35174488Y-57905012D01*
X35105163Y-57913718D01*
X35042136Y-57883562D01*
X35021899Y-57860207D01*
X35005278Y-57835334D01*
X35005273Y-57835327D01*
X34914672Y-57744726D01*
X34914668Y-57744723D01*
X34808133Y-57673538D01*
X34808124Y-57673533D01*
X34689744Y-57624499D01*
X34689738Y-57624497D01*
X34564071Y-57599500D01*
X34564069Y-57599500D01*
X34435931Y-57599500D01*
X34435929Y-57599500D01*
X34310261Y-57624497D01*
X34310255Y-57624499D01*
X34191875Y-57673533D01*
X34191866Y-57673538D01*
X34085331Y-57744723D01*
X34085327Y-57744726D01*
X33994726Y-57835327D01*
X33994723Y-57835331D01*
X33923538Y-57941866D01*
X33923533Y-57941875D01*
X33874499Y-58060255D01*
X33874497Y-58060261D01*
X33849500Y-58185928D01*
X33849500Y-58185931D01*
X33849500Y-58314069D01*
X33849500Y-58314071D01*
X33849499Y-58314071D01*
X29169154Y-58314071D01*
X29122475Y-58280157D01*
X29102997Y-58266006D01*
X29102996Y-58266005D01*
X29102994Y-58266004D01*
X29051300Y-58239664D01*
X28941639Y-58183788D01*
X28941636Y-58183787D01*
X28769410Y-58127829D01*
X28609321Y-58102473D01*
X28546186Y-58072544D01*
X28509255Y-58013232D01*
X28510253Y-57943370D01*
X28548863Y-57885137D01*
X28609321Y-57857527D01*
X28679425Y-57846422D01*
X28769409Y-57832171D01*
X28941639Y-57776211D01*
X29102994Y-57693996D01*
X29249501Y-57587553D01*
X29377553Y-57459501D01*
X29403294Y-57424071D01*
X29849499Y-57424071D01*
X29874497Y-57549738D01*
X29874499Y-57549744D01*
X29923533Y-57668124D01*
X29923538Y-57668133D01*
X29994723Y-57774668D01*
X29994726Y-57774672D01*
X30085327Y-57865273D01*
X30085331Y-57865276D01*
X30191866Y-57936461D01*
X30191872Y-57936464D01*
X30191873Y-57936465D01*
X30310256Y-57985501D01*
X30310260Y-57985501D01*
X30310261Y-57985502D01*
X30435928Y-58010500D01*
X30435931Y-58010500D01*
X30564071Y-58010500D01*
X30648615Y-57993682D01*
X30689744Y-57985501D01*
X30808127Y-57936465D01*
X30914669Y-57865276D01*
X31005276Y-57774669D01*
X31076465Y-57668127D01*
X31125501Y-57549744D01*
X31143452Y-57459501D01*
X31150500Y-57424071D01*
X31150500Y-57295928D01*
X31125502Y-57170261D01*
X31125501Y-57170260D01*
X31125501Y-57170256D01*
X31076465Y-57051873D01*
X31076464Y-57051872D01*
X31076461Y-57051866D01*
X31005276Y-56945331D01*
X31005273Y-56945327D01*
X30986819Y-56926873D01*
X30953334Y-56865550D01*
X30950500Y-56839192D01*
X30950500Y-53737965D01*
X30970185Y-53670926D01*
X30986819Y-53650284D01*
X32700284Y-51936819D01*
X32761607Y-51903334D01*
X32787965Y-51900500D01*
X32814071Y-51900500D01*
X32898615Y-51883682D01*
X32939744Y-51875501D01*
X33058127Y-51826465D01*
X33164669Y-51755276D01*
X33255276Y-51664669D01*
X33326465Y-51558127D01*
X33375501Y-51439744D01*
X33400500Y-51314069D01*
X33400500Y-51314067D01*
X33401110Y-51311001D01*
X33433495Y-51249090D01*
X33494210Y-51214516D01*
X33563980Y-51218255D01*
X33610408Y-51247511D01*
X34060198Y-51697301D01*
X34093683Y-51758624D01*
X34096517Y-51784982D01*
X34096517Y-51823018D01*
X34096517Y-51823020D01*
X34096516Y-51823020D01*
X34121514Y-51948687D01*
X34121516Y-51948693D01*
X34170550Y-52067073D01*
X34170555Y-52067082D01*
X34241740Y-52173617D01*
X34241743Y-52173621D01*
X34332344Y-52264222D01*
X34332348Y-52264225D01*
X34438883Y-52335410D01*
X34438889Y-52335413D01*
X34438890Y-52335414D01*
X34557273Y-52384450D01*
X34557277Y-52384450D01*
X34557278Y-52384451D01*
X34682945Y-52409449D01*
X34682948Y-52409449D01*
X34811088Y-52409449D01*
X34895632Y-52392631D01*
X34936761Y-52384450D01*
X35055144Y-52335414D01*
X35161686Y-52264225D01*
X35252293Y-52173618D01*
X35323482Y-52067076D01*
X35372518Y-51948693D01*
X35382321Y-51899410D01*
X35397517Y-51823020D01*
X35397517Y-51694877D01*
X35372519Y-51569210D01*
X35372518Y-51569209D01*
X35372518Y-51569205D01*
X35372516Y-51569200D01*
X35370750Y-51563378D01*
X35372672Y-51562794D01*
X35366187Y-51502486D01*
X35397460Y-51440006D01*
X35457549Y-51404352D01*
X35488217Y-51400500D01*
X35564071Y-51400500D01*
X35648615Y-51383682D01*
X35689744Y-51375501D01*
X35808127Y-51326465D01*
X35914669Y-51255276D01*
X36005276Y-51164669D01*
X36076465Y-51058127D01*
X36125501Y-50939744D01*
X36137286Y-50880499D01*
X36150500Y-50814071D01*
X36150500Y-50685928D01*
X36125502Y-50560261D01*
X36125501Y-50560260D01*
X36125501Y-50560256D01*
X36076465Y-50441873D01*
X36076464Y-50441872D01*
X36076461Y-50441866D01*
X36005276Y-50335331D01*
X36005273Y-50335327D01*
X35914672Y-50244726D01*
X35914668Y-50244723D01*
X35808133Y-50173538D01*
X35808118Y-50173530D01*
X35785014Y-50163960D01*
X35730611Y-50120118D01*
X35708547Y-50053824D01*
X35710851Y-50025207D01*
X35716187Y-49998383D01*
X35716187Y-49870241D01*
X35691189Y-49744574D01*
X35691188Y-49744573D01*
X35691188Y-49744569D01*
X35642152Y-49626186D01*
X35642151Y-49626185D01*
X35642148Y-49626179D01*
X35570963Y-49519644D01*
X35570960Y-49519640D01*
X35556860Y-49505540D01*
X35523375Y-49444217D01*
X35528359Y-49374525D01*
X35570231Y-49318592D01*
X35575650Y-49314757D01*
X35632734Y-49276614D01*
X35664669Y-49255276D01*
X35755276Y-49164669D01*
X35826465Y-49058127D01*
X35875501Y-48939744D01*
X35898034Y-48826466D01*
X35900500Y-48814071D01*
X35900500Y-48787965D01*
X35920185Y-48720926D01*
X35936819Y-48700284D01*
X36323034Y-48314069D01*
X36860489Y-47776614D01*
X36919799Y-47673887D01*
X36935253Y-47616211D01*
X36950500Y-47559309D01*
X36950500Y-45814071D01*
X41349499Y-45814071D01*
X41374497Y-45939738D01*
X41374499Y-45939744D01*
X41423533Y-46058124D01*
X41423538Y-46058133D01*
X41494723Y-46164668D01*
X41494725Y-46164671D01*
X41513179Y-46183124D01*
X41546666Y-46244446D01*
X41549500Y-46270807D01*
X41549500Y-47729192D01*
X41529815Y-47796231D01*
X41513181Y-47816873D01*
X41494726Y-47835327D01*
X41494723Y-47835331D01*
X41423538Y-47941866D01*
X41423533Y-47941875D01*
X41374499Y-48060255D01*
X41374497Y-48060261D01*
X41349500Y-48185928D01*
X41349500Y-48185931D01*
X41349500Y-48314069D01*
X41349500Y-48314071D01*
X41349499Y-48314071D01*
X41374497Y-48439738D01*
X41374499Y-48439744D01*
X41423533Y-48558124D01*
X41423538Y-48558133D01*
X41494723Y-48664668D01*
X41494726Y-48664672D01*
X41585327Y-48755273D01*
X41585331Y-48755276D01*
X41691866Y-48826461D01*
X41691872Y-48826464D01*
X41691873Y-48826465D01*
X41810256Y-48875501D01*
X41810260Y-48875501D01*
X41810261Y-48875502D01*
X41935928Y-48900500D01*
X41935931Y-48900500D01*
X42064071Y-48900500D01*
X42148615Y-48883682D01*
X42189744Y-48875501D01*
X42308127Y-48826465D01*
X42414669Y-48755276D01*
X42505276Y-48664669D01*
X42576465Y-48558127D01*
X42625501Y-48439744D01*
X42633682Y-48398615D01*
X42650500Y-48314071D01*
X42650500Y-48185928D01*
X42625502Y-48060261D01*
X42625501Y-48060260D01*
X42625501Y-48060256D01*
X42576465Y-47941873D01*
X42576464Y-47941872D01*
X42576461Y-47941866D01*
X42505276Y-47835331D01*
X42505273Y-47835327D01*
X42486819Y-47816873D01*
X42453334Y-47755550D01*
X42450500Y-47729192D01*
X42450500Y-46270807D01*
X42470185Y-46203768D01*
X42486821Y-46183124D01*
X42505274Y-46164671D01*
X42505276Y-46164669D01*
X42576465Y-46058127D01*
X42625501Y-45939744D01*
X42650500Y-45814069D01*
X42650500Y-45685931D01*
X42650500Y-45685928D01*
X42625502Y-45560261D01*
X42625501Y-45560260D01*
X42625501Y-45560256D01*
X42576465Y-45441873D01*
X42576464Y-45441872D01*
X42576461Y-45441866D01*
X42505276Y-45335331D01*
X42505273Y-45335327D01*
X42414672Y-45244726D01*
X42414668Y-45244723D01*
X42308133Y-45173538D01*
X42308124Y-45173533D01*
X42189744Y-45124499D01*
X42189738Y-45124497D01*
X42064071Y-45099500D01*
X42064069Y-45099500D01*
X41935931Y-45099500D01*
X41935929Y-45099500D01*
X41810261Y-45124497D01*
X41810255Y-45124499D01*
X41691875Y-45173533D01*
X41691866Y-45173538D01*
X41585331Y-45244723D01*
X41585327Y-45244726D01*
X41494726Y-45335327D01*
X41494723Y-45335331D01*
X41423538Y-45441866D01*
X41423533Y-45441875D01*
X41374499Y-45560255D01*
X41374497Y-45560261D01*
X41349500Y-45685928D01*
X41349500Y-45685931D01*
X41349500Y-45814069D01*
X41349500Y-45814071D01*
X41349499Y-45814071D01*
X36950500Y-45814071D01*
X36950500Y-45520807D01*
X36970185Y-45453768D01*
X36986821Y-45433124D01*
X37005274Y-45414671D01*
X37005276Y-45414669D01*
X37076465Y-45308127D01*
X37125501Y-45189744D01*
X37134759Y-45143202D01*
X37150500Y-45064071D01*
X37150500Y-44935928D01*
X37125502Y-44810261D01*
X37125501Y-44810260D01*
X37125501Y-44810256D01*
X37076465Y-44691873D01*
X37076464Y-44691872D01*
X37076461Y-44691866D01*
X37005276Y-44585330D01*
X36914672Y-44494726D01*
X36914668Y-44494723D01*
X36808133Y-44423538D01*
X36808124Y-44423533D01*
X36689744Y-44374499D01*
X36689738Y-44374497D01*
X36564071Y-44349500D01*
X36564069Y-44349500D01*
X36435931Y-44349500D01*
X36435929Y-44349500D01*
X36310261Y-44374497D01*
X36310255Y-44374499D01*
X36191875Y-44423533D01*
X36191866Y-44423538D01*
X36085331Y-44494723D01*
X36085327Y-44494726D01*
X35994726Y-44585327D01*
X35994724Y-44585330D01*
X35923538Y-44691866D01*
X35923533Y-44691875D01*
X35874499Y-44810255D01*
X35874497Y-44810261D01*
X35849500Y-44935928D01*
X35849500Y-44935931D01*
X35849500Y-45064069D01*
X35849500Y-45064071D01*
X35849499Y-45064071D01*
X35874497Y-45189738D01*
X35874499Y-45189744D01*
X35923533Y-45308124D01*
X35923538Y-45308133D01*
X35994723Y-45414668D01*
X35994725Y-45414671D01*
X36013179Y-45433124D01*
X36046666Y-45494446D01*
X36049500Y-45520807D01*
X36049500Y-45958871D01*
X36029815Y-46025910D01*
X35977011Y-46071665D01*
X35907853Y-46081609D01*
X35901309Y-46080488D01*
X35844404Y-46069169D01*
X35844400Y-46069169D01*
X35716262Y-46069169D01*
X35716260Y-46069169D01*
X35590592Y-46094166D01*
X35590587Y-46094168D01*
X35551763Y-46110249D01*
X35482294Y-46117716D01*
X35419815Y-46086441D01*
X35384163Y-46026351D01*
X35386658Y-45956526D01*
X35389752Y-45948233D01*
X35396011Y-45933124D01*
X35405832Y-45909413D01*
X35424798Y-45814069D01*
X35430831Y-45783740D01*
X35430831Y-45655597D01*
X35405833Y-45529930D01*
X35405832Y-45529929D01*
X35405832Y-45529925D01*
X35365251Y-45431954D01*
X35356797Y-45411544D01*
X35356792Y-45411535D01*
X35285607Y-45305000D01*
X35285604Y-45304996D01*
X35195003Y-45214395D01*
X35194999Y-45214392D01*
X35088464Y-45143207D01*
X35088455Y-45143202D01*
X34970075Y-45094168D01*
X34970069Y-45094166D01*
X34841332Y-45068558D01*
X34779421Y-45036173D01*
X34744847Y-44975457D01*
X34748588Y-44905687D01*
X34777839Y-44859263D01*
X34860490Y-44776614D01*
X34919799Y-44673887D01*
X34943527Y-44585331D01*
X34950500Y-44559309D01*
X34950500Y-42520807D01*
X34970185Y-42453768D01*
X34986821Y-42433124D01*
X35005274Y-42414671D01*
X35005276Y-42414669D01*
X35076465Y-42308127D01*
X35125501Y-42189744D01*
X35150500Y-42064069D01*
X35150500Y-41935931D01*
X35150500Y-41935928D01*
X35125502Y-41810261D01*
X35125501Y-41810260D01*
X35125501Y-41810256D01*
X35076465Y-41691873D01*
X35076464Y-41691872D01*
X35076461Y-41691866D01*
X35005276Y-41585331D01*
X35005273Y-41585327D01*
X34914672Y-41494726D01*
X34914668Y-41494723D01*
X34808133Y-41423538D01*
X34808124Y-41423533D01*
X34689744Y-41374499D01*
X34689738Y-41374497D01*
X34564071Y-41349500D01*
X34564069Y-41349500D01*
X34435931Y-41349500D01*
X34435929Y-41349500D01*
X34310261Y-41374497D01*
X34310255Y-41374499D01*
X34191875Y-41423533D01*
X34191866Y-41423538D01*
X34085331Y-41494723D01*
X34085327Y-41494726D01*
X33994726Y-41585327D01*
X33994723Y-41585331D01*
X33923538Y-41691866D01*
X33923533Y-41691875D01*
X33874499Y-41810255D01*
X33874497Y-41810261D01*
X33849500Y-41935928D01*
X33849500Y-41935931D01*
X33849500Y-42064069D01*
X33849500Y-42064071D01*
X33849499Y-42064071D01*
X33874497Y-42189738D01*
X33874499Y-42189744D01*
X33923533Y-42308124D01*
X33923538Y-42308133D01*
X33994723Y-42414668D01*
X33994725Y-42414671D01*
X34013179Y-42433124D01*
X34046666Y-42494446D01*
X34049500Y-42520807D01*
X34049500Y-43352827D01*
X34029815Y-43419866D01*
X33977011Y-43465621D01*
X33907853Y-43475565D01*
X33856609Y-43455929D01*
X33808133Y-43423538D01*
X33808124Y-43423533D01*
X33689744Y-43374499D01*
X33689738Y-43374497D01*
X33564071Y-43349500D01*
X33564069Y-43349500D01*
X33435931Y-43349500D01*
X33435929Y-43349500D01*
X33310261Y-43374497D01*
X33310255Y-43374499D01*
X33191875Y-43423533D01*
X33191866Y-43423538D01*
X33085331Y-43494723D01*
X33085327Y-43494726D01*
X32994726Y-43585327D01*
X32994723Y-43585331D01*
X32923538Y-43691866D01*
X32923533Y-43691875D01*
X32874499Y-43810255D01*
X32874497Y-43810261D01*
X32849500Y-43935928D01*
X32849500Y-43962035D01*
X32829815Y-44029074D01*
X32813181Y-44049716D01*
X32049716Y-44813181D01*
X31988393Y-44846666D01*
X31962035Y-44849500D01*
X31935929Y-44849500D01*
X31810261Y-44874497D01*
X31810255Y-44874499D01*
X31691875Y-44923533D01*
X31691866Y-44923538D01*
X31585331Y-44994723D01*
X31585327Y-44994726D01*
X31494726Y-45085327D01*
X31494723Y-45085331D01*
X31423538Y-45191866D01*
X31423533Y-45191875D01*
X31374499Y-45310255D01*
X31374497Y-45310261D01*
X31349500Y-45435928D01*
X31349500Y-45435931D01*
X31349500Y-45564069D01*
X31349500Y-45564071D01*
X31349499Y-45564071D01*
X31374497Y-45689738D01*
X31374499Y-45689744D01*
X31423533Y-45808124D01*
X31423538Y-45808133D01*
X31494723Y-45914668D01*
X31494725Y-45914671D01*
X31513179Y-45933124D01*
X31546666Y-45994446D01*
X31549500Y-46020807D01*
X31549500Y-49059308D01*
X31573712Y-49149672D01*
X31580200Y-49173885D01*
X31580200Y-49173886D01*
X31586427Y-49184671D01*
X31639511Y-49276614D01*
X31639513Y-49276616D01*
X32752488Y-50389591D01*
X32785973Y-50450914D01*
X32780989Y-50520606D01*
X32739117Y-50576539D01*
X32688999Y-50598889D01*
X32560261Y-50624497D01*
X32560255Y-50624499D01*
X32441875Y-50673533D01*
X32441866Y-50673538D01*
X32335331Y-50744723D01*
X32335327Y-50744726D01*
X32244726Y-50835327D01*
X32244723Y-50835331D01*
X32173538Y-50941866D01*
X32173533Y-50941875D01*
X32124499Y-51060255D01*
X32124497Y-51060261D01*
X32099500Y-51185928D01*
X32099500Y-51212035D01*
X32079815Y-51279074D01*
X32063181Y-51299716D01*
X30139513Y-53223383D01*
X30139509Y-53223389D01*
X30080201Y-53326112D01*
X30080200Y-53326117D01*
X30049500Y-53440691D01*
X30049500Y-56839192D01*
X30029815Y-56906231D01*
X30013181Y-56926873D01*
X29994726Y-56945327D01*
X29994723Y-56945331D01*
X29923538Y-57051866D01*
X29923533Y-57051875D01*
X29874499Y-57170255D01*
X29874497Y-57170261D01*
X29849500Y-57295928D01*
X29849500Y-57295931D01*
X29849500Y-57424069D01*
X29849500Y-57424071D01*
X29849499Y-57424071D01*
X29403294Y-57424071D01*
X29483996Y-57312994D01*
X29566211Y-57151639D01*
X29622171Y-56979409D01*
X29638787Y-56874497D01*
X29650500Y-56800551D01*
X29650500Y-56619448D01*
X29634019Y-56515397D01*
X29622171Y-56440591D01*
X29566211Y-56268361D01*
X29566211Y-56268360D01*
X29537740Y-56212484D01*
X29483996Y-56107006D01*
X29470396Y-56088287D01*
X29377558Y-55960505D01*
X29377554Y-55960500D01*
X29249499Y-55832445D01*
X29249494Y-55832441D01*
X29102997Y-55726006D01*
X29102996Y-55726005D01*
X29102994Y-55726004D01*
X29051300Y-55699664D01*
X28941639Y-55643788D01*
X28941636Y-55643787D01*
X28769410Y-55587829D01*
X28609321Y-55562473D01*
X28546186Y-55532544D01*
X28509255Y-55473232D01*
X28510253Y-55403370D01*
X28548863Y-55345137D01*
X28609321Y-55317527D01*
X28679425Y-55306422D01*
X28769409Y-55292171D01*
X28941639Y-55236211D01*
X29102994Y-55153996D01*
X29249501Y-55047553D01*
X29377553Y-54919501D01*
X29483996Y-54772994D01*
X29566211Y-54611639D01*
X29622171Y-54439409D01*
X29636765Y-54347259D01*
X29650500Y-54260551D01*
X29650500Y-54079448D01*
X29634019Y-53975397D01*
X29622171Y-53900591D01*
X29571778Y-53745494D01*
X29566212Y-53728363D01*
X29566211Y-53728360D01*
X29536946Y-53670926D01*
X29483996Y-53567006D01*
X29470396Y-53548287D01*
X29377558Y-53420505D01*
X29377554Y-53420500D01*
X29249499Y-53292445D01*
X29249494Y-53292441D01*
X29102997Y-53186006D01*
X29102996Y-53186005D01*
X29102994Y-53186004D01*
X29051300Y-53159664D01*
X28941639Y-53103788D01*
X28941636Y-53103787D01*
X28769410Y-53047829D01*
X28609321Y-53022473D01*
X28546186Y-52992544D01*
X28509255Y-52933232D01*
X28510253Y-52863370D01*
X28548863Y-52805137D01*
X28609321Y-52777527D01*
X28679425Y-52766422D01*
X28769409Y-52752171D01*
X28941639Y-52696211D01*
X29102994Y-52613996D01*
X29249501Y-52507553D01*
X29377553Y-52379501D01*
X29483996Y-52232994D01*
X29566211Y-52071639D01*
X29622171Y-51899409D01*
X29636765Y-51807259D01*
X29650500Y-51720551D01*
X29650500Y-51539448D01*
X29628492Y-51400500D01*
X29622171Y-51360591D01*
X29566211Y-51188361D01*
X29566211Y-51188360D01*
X29500940Y-51060261D01*
X29483996Y-51027006D01*
X29422144Y-50941873D01*
X29377558Y-50880505D01*
X29377554Y-50880500D01*
X29249499Y-50752445D01*
X29249494Y-50752441D01*
X29102997Y-50646006D01*
X29102996Y-50646005D01*
X29102994Y-50646004D01*
X29051300Y-50619664D01*
X28941639Y-50563788D01*
X28941636Y-50563787D01*
X28769410Y-50507829D01*
X28609321Y-50482473D01*
X28546186Y-50452544D01*
X28509255Y-50393232D01*
X28510253Y-50323370D01*
X28548863Y-50265137D01*
X28609321Y-50237527D01*
X28679425Y-50226422D01*
X28769409Y-50212171D01*
X28941639Y-50156211D01*
X29102994Y-50073996D01*
X29249501Y-49967553D01*
X29377553Y-49839501D01*
X29483996Y-49692994D01*
X29566211Y-49531639D01*
X29622171Y-49359409D01*
X29638664Y-49255276D01*
X29650500Y-49180551D01*
X29650500Y-48999448D01*
X29630868Y-48875500D01*
X29622171Y-48820591D01*
X29571510Y-48664669D01*
X29566212Y-48648363D01*
X29566211Y-48648360D01*
X29520234Y-48558127D01*
X29483996Y-48487006D01*
X29449654Y-48439738D01*
X29377558Y-48340505D01*
X29377554Y-48340500D01*
X29249499Y-48212445D01*
X29249494Y-48212441D01*
X29102997Y-48106006D01*
X29102996Y-48106005D01*
X29102994Y-48106004D01*
X29051300Y-48079664D01*
X28941639Y-48023788D01*
X28941636Y-48023787D01*
X28769410Y-47967829D01*
X28609321Y-47942473D01*
X28546186Y-47912544D01*
X28509255Y-47853232D01*
X28510253Y-47783370D01*
X28548863Y-47725137D01*
X28609321Y-47697527D01*
X28679425Y-47686422D01*
X28769409Y-47672171D01*
X28941639Y-47616211D01*
X29102994Y-47533996D01*
X29249501Y-47427553D01*
X29377553Y-47299501D01*
X29483996Y-47152994D01*
X29566211Y-46991639D01*
X29622171Y-46819409D01*
X29640444Y-46704037D01*
X29650500Y-46640551D01*
X29650500Y-46459448D01*
X29629446Y-46326523D01*
X29622171Y-46280591D01*
X29577532Y-46143204D01*
X29566212Y-46108363D01*
X29566211Y-46108360D01*
X29525161Y-46027796D01*
X29483996Y-45947006D01*
X29420163Y-45859147D01*
X29377558Y-45800505D01*
X29377554Y-45800500D01*
X29249499Y-45672445D01*
X29249494Y-45672441D01*
X29102997Y-45566006D01*
X29102996Y-45566005D01*
X29102994Y-45566004D01*
X29051300Y-45539664D01*
X28941639Y-45483788D01*
X28941636Y-45483787D01*
X28769410Y-45427829D01*
X28637728Y-45406972D01*
X28574594Y-45377042D01*
X28537663Y-45317731D01*
X28538661Y-45247868D01*
X28577271Y-45189636D01*
X28641235Y-45161522D01*
X28657120Y-45160499D01*
X29394864Y-45160499D01*
X29394879Y-45160497D01*
X29394882Y-45160497D01*
X29419987Y-45157586D01*
X29419988Y-45157585D01*
X29419991Y-45157585D01*
X29522765Y-45112206D01*
X29602206Y-45032765D01*
X29647585Y-44929991D01*
X29650500Y-44904865D01*
X29650499Y-43115136D01*
X29650497Y-43115117D01*
X29647586Y-43090012D01*
X29647585Y-43090010D01*
X29647585Y-43090009D01*
X29602206Y-42987235D01*
X29522765Y-42907794D01*
X29486877Y-42891948D01*
X29419992Y-42862415D01*
X29394865Y-42859500D01*
X27605143Y-42859500D01*
X27605117Y-42859502D01*
X27580012Y-42862413D01*
X27580008Y-42862415D01*
X27477235Y-42907793D01*
X27397794Y-42987234D01*
X27352415Y-43090006D01*
X27352415Y-43090008D01*
X27349500Y-43115131D01*
X27349500Y-44904856D01*
X27349502Y-44904882D01*
X27352413Y-44929987D01*
X27352415Y-44929991D01*
X27397793Y-45032764D01*
X27397794Y-45032765D01*
X27477235Y-45112206D01*
X27580009Y-45157585D01*
X27605135Y-45160500D01*
X28342873Y-45160499D01*
X28409910Y-45180183D01*
X28455665Y-45232987D01*
X28465609Y-45302146D01*
X28436584Y-45365702D01*
X28377806Y-45403476D01*
X28362270Y-45406972D01*
X28230589Y-45427829D01*
X28058363Y-45483787D01*
X28058360Y-45483788D01*
X27897002Y-45566006D01*
X27750505Y-45672441D01*
X27750500Y-45672445D01*
X27622445Y-45800500D01*
X27622441Y-45800505D01*
X27516006Y-45947002D01*
X27433788Y-46108360D01*
X27433787Y-46108363D01*
X27377829Y-46280589D01*
X27349500Y-46459448D01*
X27349500Y-46640551D01*
X27377829Y-46819410D01*
X27433787Y-46991636D01*
X27433788Y-46991639D01*
X27516006Y-47152997D01*
X27622441Y-47299494D01*
X27622445Y-47299499D01*
X27750500Y-47427554D01*
X27750505Y-47427558D01*
X27842952Y-47494724D01*
X27897006Y-47533996D01*
X27961888Y-47567055D01*
X28058360Y-47616211D01*
X28058363Y-47616212D01*
X28144476Y-47644191D01*
X28230591Y-47672171D01*
X28303639Y-47683740D01*
X28390678Y-47697527D01*
X28453813Y-47727456D01*
X28490744Y-47786768D01*
X28489746Y-47856631D01*
X28451136Y-47914863D01*
X28390678Y-47942473D01*
X28230589Y-47967829D01*
X28058363Y-48023787D01*
X28058360Y-48023788D01*
X27897002Y-48106006D01*
X27750505Y-48212441D01*
X27750500Y-48212445D01*
X27622445Y-48340500D01*
X27622441Y-48340505D01*
X27516006Y-48487002D01*
X27433788Y-48648360D01*
X27433787Y-48648363D01*
X27377829Y-48820589D01*
X27349500Y-48999448D01*
X27349500Y-49180551D01*
X27377829Y-49359410D01*
X27433787Y-49531636D01*
X27433788Y-49531639D01*
X27516006Y-49692997D01*
X27622441Y-49839494D01*
X27622445Y-49839499D01*
X27750500Y-49967554D01*
X27750505Y-49967558D01*
X27829853Y-50025207D01*
X27897006Y-50073996D01*
X28002484Y-50127740D01*
X28058360Y-50156211D01*
X28058363Y-50156212D01*
X28144476Y-50184191D01*
X28230591Y-50212171D01*
X28303639Y-50223740D01*
X28390678Y-50237527D01*
X28453813Y-50267456D01*
X28490744Y-50326768D01*
X28489746Y-50396631D01*
X28451136Y-50454863D01*
X28390678Y-50482473D01*
X28230589Y-50507829D01*
X28058363Y-50563787D01*
X28058360Y-50563788D01*
X27897002Y-50646006D01*
X27750505Y-50752441D01*
X27750500Y-50752445D01*
X27622445Y-50880500D01*
X27622441Y-50880505D01*
X27516006Y-51027002D01*
X27433788Y-51188360D01*
X27433787Y-51188363D01*
X27377829Y-51360589D01*
X27349500Y-51539448D01*
X27349500Y-51720551D01*
X27377829Y-51899410D01*
X27433787Y-52071636D01*
X27433788Y-52071639D01*
X27516006Y-52232997D01*
X27622441Y-52379494D01*
X27622445Y-52379499D01*
X27750500Y-52507554D01*
X27750505Y-52507558D01*
X27878287Y-52600396D01*
X27897006Y-52613996D01*
X28002484Y-52667740D01*
X28058360Y-52696211D01*
X28058363Y-52696212D01*
X28144476Y-52724191D01*
X28230591Y-52752171D01*
X28303639Y-52763740D01*
X28390678Y-52777527D01*
X28453813Y-52807456D01*
X28490744Y-52866768D01*
X28489746Y-52936631D01*
X28451136Y-52994863D01*
X28390678Y-53022473D01*
X28230589Y-53047829D01*
X28058363Y-53103787D01*
X28058360Y-53103788D01*
X27897002Y-53186006D01*
X27750505Y-53292441D01*
X27750500Y-53292445D01*
X27622445Y-53420500D01*
X27622441Y-53420505D01*
X27516006Y-53567002D01*
X27433788Y-53728360D01*
X27433787Y-53728363D01*
X27377829Y-53900589D01*
X27349500Y-54079448D01*
X27349500Y-54260551D01*
X27377829Y-54439410D01*
X27433787Y-54611636D01*
X27433788Y-54611639D01*
X27516006Y-54772997D01*
X27622441Y-54919494D01*
X27622445Y-54919499D01*
X27750500Y-55047554D01*
X27750505Y-55047558D01*
X27878287Y-55140396D01*
X27897006Y-55153996D01*
X28002484Y-55207740D01*
X28058360Y-55236211D01*
X28058363Y-55236212D01*
X28144476Y-55264191D01*
X28230591Y-55292171D01*
X28303639Y-55303740D01*
X28390678Y-55317527D01*
X28453813Y-55347456D01*
X28490744Y-55406768D01*
X28489746Y-55476631D01*
X28451136Y-55534863D01*
X28390678Y-55562473D01*
X28230589Y-55587829D01*
X28058363Y-55643787D01*
X28058360Y-55643788D01*
X27897002Y-55726006D01*
X27750505Y-55832441D01*
X27750500Y-55832445D01*
X27622445Y-55960500D01*
X27622441Y-55960505D01*
X27516006Y-56107002D01*
X27433788Y-56268360D01*
X27433787Y-56268363D01*
X27377829Y-56440589D01*
X27349500Y-56619448D01*
X27349500Y-56800551D01*
X27377829Y-56979410D01*
X27433787Y-57151636D01*
X27433788Y-57151639D01*
X27454289Y-57191873D01*
X27514611Y-57310261D01*
X27516006Y-57312997D01*
X27622441Y-57459494D01*
X27622445Y-57459499D01*
X27750500Y-57587554D01*
X27750505Y-57587558D01*
X27801348Y-57624497D01*
X27897006Y-57693996D01*
X27996563Y-57744723D01*
X28058360Y-57776211D01*
X28058363Y-57776212D01*
X28144476Y-57804191D01*
X28230591Y-57832171D01*
X28303639Y-57843740D01*
X28390678Y-57857527D01*
X28453813Y-57887456D01*
X28490744Y-57946768D01*
X28489746Y-58016631D01*
X28451136Y-58074863D01*
X28390678Y-58102473D01*
X28230589Y-58127829D01*
X28058363Y-58183787D01*
X28058360Y-58183788D01*
X27897002Y-58266006D01*
X27750505Y-58372441D01*
X27750500Y-58372445D01*
X27622445Y-58500500D01*
X27622441Y-58500505D01*
X27516006Y-58647002D01*
X27433788Y-58808360D01*
X27433787Y-58808363D01*
X27377829Y-58980589D01*
X27349500Y-59159448D01*
X27349500Y-59340551D01*
X27377829Y-59519410D01*
X27433787Y-59691636D01*
X27433788Y-59691639D01*
X27446166Y-59715931D01*
X27511457Y-59844071D01*
X27516006Y-59852997D01*
X27622441Y-59999494D01*
X27622445Y-59999499D01*
X27750500Y-60127554D01*
X27750505Y-60127558D01*
X27842881Y-60194672D01*
X27897006Y-60233996D01*
X27997642Y-60285273D01*
X28028684Y-60301090D01*
X28079480Y-60349065D01*
X28096275Y-60416886D01*
X28073737Y-60483021D01*
X28019022Y-60526472D01*
X28010708Y-60529506D01*
X27981781Y-60538905D01*
X27792439Y-60635380D01*
X27738282Y-60674727D01*
X27738282Y-60674728D01*
X28370591Y-61307037D01*
X28307007Y-61324075D01*
X28192993Y-61389901D01*
X28099901Y-61482993D01*
X28034075Y-61597007D01*
X28017037Y-61660591D01*
X27384728Y-61028282D01*
X27384727Y-61028282D01*
X27345380Y-61082439D01*
X27248904Y-61271782D01*
X27183242Y-61473869D01*
X27183242Y-61473872D01*
X27150000Y-61683753D01*
X26250500Y-61683753D01*
X26250500Y-26301363D01*
X42994500Y-26301363D01*
X42994500Y-34433638D01*
X43005166Y-34536930D01*
X43005169Y-34536946D01*
X43015522Y-34586543D01*
X43015526Y-34586555D01*
X43035975Y-34650680D01*
X43047074Y-34685483D01*
X43047075Y-34685485D01*
X43047077Y-34685489D01*
X43122813Y-34807809D01*
X43122818Y-34807815D01*
X43167668Y-34861367D01*
X43167672Y-34861371D01*
X43167678Y-34861378D01*
X43255511Y-34940108D01*
X43274819Y-34957415D01*
X43938292Y-35399730D01*
X43942112Y-35402253D01*
X43942900Y-35402767D01*
X43943753Y-35403326D01*
X43947208Y-35405567D01*
X44078085Y-35465338D01*
X44145124Y-35485023D01*
X44145128Y-35485024D01*
X44287544Y-35505500D01*
X45739254Y-35505500D01*
X45806293Y-35525185D01*
X45826935Y-35541819D01*
X46208181Y-35923065D01*
X46241666Y-35984388D01*
X46244500Y-36010746D01*
X46244500Y-37970728D01*
X46258023Y-38086871D01*
X46271114Y-38142322D01*
X46310958Y-38252247D01*
X46356903Y-38344136D01*
X46481409Y-38593149D01*
X46494500Y-38648603D01*
X46494500Y-39594488D01*
X46494581Y-39603519D01*
X46494659Y-39607901D01*
X46494901Y-39616952D01*
X46520444Y-39758541D01*
X46520445Y-39758545D01*
X46542503Y-39824820D01*
X46542512Y-39824848D01*
X46606916Y-39953510D01*
X46651002Y-40000860D01*
X46704960Y-40058814D01*
X46759364Y-40102655D01*
X46883101Y-40176071D01*
X46883103Y-40176072D01*
X46892507Y-40179967D01*
X46913949Y-40191427D01*
X46950154Y-40215618D01*
X46968945Y-40231040D01*
X46999719Y-40261814D01*
X47015140Y-40280604D01*
X47039328Y-40316804D01*
X47050786Y-40338241D01*
X47067448Y-40378465D01*
X47074505Y-40401727D01*
X47082997Y-40444417D01*
X47085380Y-40468609D01*
X47085380Y-40512149D01*
X47082997Y-40536340D01*
X47074505Y-40579032D01*
X47067448Y-40602297D01*
X47050788Y-40642515D01*
X47039331Y-40663949D01*
X47015142Y-40700151D01*
X46999720Y-40718942D01*
X46968942Y-40749720D01*
X46950153Y-40765140D01*
X46913954Y-40789328D01*
X46892518Y-40800787D01*
X46883055Y-40804706D01*
X46874683Y-40808263D01*
X46870586Y-40810047D01*
X46862503Y-40813653D01*
X46862487Y-40813661D01*
X46741468Y-40891436D01*
X46741451Y-40891449D01*
X46688659Y-40937193D01*
X46594433Y-41045934D01*
X46594430Y-41045938D01*
X46534664Y-41176804D01*
X46514976Y-41243852D01*
X46494500Y-41386271D01*
X46494500Y-45850123D01*
X46494581Y-45859154D01*
X46494659Y-45863537D01*
X46494901Y-45872589D01*
X46520444Y-46014175D01*
X46542509Y-46080473D01*
X46542512Y-46080480D01*
X46545496Y-46086441D01*
X46606911Y-46209135D01*
X46697539Y-46306480D01*
X46704952Y-46314442D01*
X46750989Y-46351543D01*
X46750993Y-46351545D01*
X46759355Y-46358284D01*
X46759361Y-46358289D01*
X46883100Y-46431706D01*
X46909526Y-46442652D01*
X46916464Y-46446639D01*
X46917661Y-46447889D01*
X46923568Y-46451047D01*
X46959772Y-46475237D01*
X46978564Y-46490659D01*
X47009339Y-46521434D01*
X47024760Y-46540224D01*
X47048948Y-46576424D01*
X47060406Y-46597861D01*
X47077068Y-46638085D01*
X47084125Y-46661347D01*
X47092617Y-46704037D01*
X47095000Y-46728229D01*
X47095000Y-46771769D01*
X47092617Y-46795960D01*
X47084125Y-46838652D01*
X47077068Y-46861917D01*
X47060408Y-46902135D01*
X47048951Y-46923569D01*
X47024762Y-46959771D01*
X47009340Y-46978562D01*
X46978562Y-47009340D01*
X46959771Y-47024762D01*
X46923572Y-47048949D01*
X46902142Y-47060404D01*
X46883097Y-47068294D01*
X46874813Y-47071813D01*
X46870736Y-47073588D01*
X46862494Y-47077263D01*
X46741462Y-47155046D01*
X46741451Y-47155054D01*
X46688659Y-47200798D01*
X46594433Y-47309539D01*
X46594430Y-47309543D01*
X46534664Y-47440409D01*
X46514976Y-47507457D01*
X46501325Y-47602403D01*
X46494500Y-47649875D01*
X46494500Y-60746124D01*
X46500646Y-60824711D01*
X46500647Y-60824721D01*
X46506639Y-60862792D01*
X46506643Y-60862815D01*
X46524931Y-60939483D01*
X46588162Y-61068720D01*
X46588164Y-61068725D01*
X46636453Y-61139641D01*
X46639958Y-61141435D01*
X46646075Y-61147657D01*
X46650239Y-61152201D01*
X46680413Y-61192508D01*
X46761250Y-61273345D01*
X46763080Y-61275342D01*
X46763872Y-61276956D01*
X46774762Y-61290226D01*
X46798949Y-61326425D01*
X46810406Y-61347861D01*
X46827068Y-61388085D01*
X46834125Y-61411347D01*
X46842617Y-61454037D01*
X46845000Y-61478229D01*
X46845000Y-61521769D01*
X46842617Y-61545960D01*
X46834125Y-61588652D01*
X46827068Y-61611917D01*
X46810408Y-61652135D01*
X46798950Y-61673570D01*
X46774762Y-61709770D01*
X46759342Y-61728560D01*
X46691636Y-61796267D01*
X46691632Y-61796271D01*
X46684677Y-61803224D01*
X46684674Y-61803227D01*
X46682599Y-61805301D01*
X46679732Y-61808169D01*
X46679733Y-61808169D01*
X46678846Y-61809057D01*
X46678796Y-61809106D01*
X46678775Y-61809127D01*
X46664581Y-61823320D01*
X46655413Y-61835727D01*
X46654371Y-61836959D01*
X46642155Y-61850679D01*
X46636715Y-61857841D01*
X46634614Y-61860328D01*
X46634506Y-61860398D01*
X46633663Y-61861439D01*
X46633184Y-61861991D01*
X46630599Y-61865715D01*
X46627511Y-61869966D01*
X46594433Y-61913537D01*
X46534663Y-62044411D01*
X46514976Y-62111456D01*
X46505074Y-62180329D01*
X46497029Y-62236288D01*
X46494500Y-62253875D01*
X46494500Y-66850123D01*
X46494581Y-66859154D01*
X46494659Y-66863537D01*
X46494901Y-66872589D01*
X46520444Y-67014175D01*
X46542509Y-67080473D01*
X46542512Y-67080480D01*
X46574746Y-67144876D01*
X46606911Y-67209135D01*
X46699070Y-67308124D01*
X46704952Y-67314442D01*
X46750989Y-67351543D01*
X46750993Y-67351545D01*
X46759355Y-67358284D01*
X46759361Y-67358289D01*
X46883100Y-67431706D01*
X46909526Y-67442652D01*
X46916464Y-67446639D01*
X46917661Y-67447889D01*
X46923568Y-67451047D01*
X46959772Y-67475237D01*
X46978564Y-67490659D01*
X47009339Y-67521434D01*
X47024760Y-67540224D01*
X47048948Y-67576424D01*
X47060406Y-67597861D01*
X47077068Y-67638085D01*
X47084125Y-67661347D01*
X47090197Y-67691875D01*
X47092617Y-67704037D01*
X47095000Y-67728229D01*
X47095000Y-67771769D01*
X47092617Y-67795960D01*
X47084125Y-67838652D01*
X47077068Y-67861917D01*
X47060408Y-67902135D01*
X47048951Y-67923569D01*
X47024762Y-67959771D01*
X47009340Y-67978562D01*
X46978562Y-68009340D01*
X46959771Y-68024762D01*
X46923572Y-68048949D01*
X46902142Y-68060404D01*
X46883097Y-68068294D01*
X46874813Y-68071813D01*
X46870736Y-68073588D01*
X46862494Y-68077263D01*
X46741462Y-68155046D01*
X46741451Y-68155054D01*
X46688659Y-68200798D01*
X46594433Y-68309539D01*
X46594430Y-68309543D01*
X46534664Y-68440409D01*
X46514976Y-68507457D01*
X46494500Y-68649876D01*
X46494500Y-70438002D01*
X46502490Y-70527519D01*
X46510271Y-70570763D01*
X46533993Y-70657461D01*
X46556429Y-70698636D01*
X46602834Y-70783800D01*
X46628002Y-70817484D01*
X46644656Y-70839773D01*
X46746299Y-70941599D01*
X46746300Y-70941600D01*
X47663633Y-71629600D01*
X47678476Y-71640318D01*
X47685837Y-71645433D01*
X47700997Y-71655567D01*
X47831874Y-71715338D01*
X47898913Y-71735023D01*
X47898917Y-71735024D01*
X48041333Y-71755500D01*
X48041336Y-71755500D01*
X48948640Y-71755500D01*
X48958786Y-71754955D01*
X49002678Y-71752603D01*
X49002686Y-71752602D01*
X49002688Y-71752602D01*
X49002689Y-71752602D01*
X49009682Y-71751849D01*
X49029036Y-71749769D01*
X49029046Y-71749767D01*
X49029049Y-71749767D01*
X49038648Y-71748211D01*
X49082448Y-71741114D01*
X49217257Y-71690832D01*
X49278580Y-71657347D01*
X49393761Y-71571123D01*
X49821123Y-71143761D01*
X49857288Y-71103500D01*
X49873922Y-71082858D01*
X49905567Y-71038974D01*
X49965338Y-70908097D01*
X49985023Y-70841058D01*
X49985024Y-70841054D01*
X50005500Y-70698638D01*
X50005500Y-34467631D01*
X62099500Y-34467631D01*
X62099500Y-36257356D01*
X62099502Y-36257382D01*
X62102413Y-36282487D01*
X62102415Y-36282491D01*
X62147793Y-36385264D01*
X62147794Y-36385265D01*
X62227235Y-36464706D01*
X62330009Y-36510085D01*
X62355135Y-36513000D01*
X63092873Y-36512999D01*
X63159910Y-36532683D01*
X63205665Y-36585487D01*
X63215609Y-36654646D01*
X63186584Y-36718202D01*
X63127806Y-36755976D01*
X63112270Y-36759472D01*
X62980589Y-36780329D01*
X62808363Y-36836287D01*
X62808360Y-36836288D01*
X62647002Y-36918506D01*
X62500505Y-37024941D01*
X62500500Y-37024945D01*
X62372445Y-37153000D01*
X62372441Y-37153005D01*
X62266006Y-37299502D01*
X62183788Y-37460860D01*
X62183787Y-37460863D01*
X62127829Y-37633089D01*
X62099500Y-37811948D01*
X62099500Y-37993051D01*
X62127829Y-38171910D01*
X62183787Y-38344136D01*
X62183788Y-38344139D01*
X62266006Y-38505497D01*
X62372441Y-38651994D01*
X62372445Y-38651999D01*
X62500500Y-38780054D01*
X62500505Y-38780058D01*
X62628287Y-38872896D01*
X62647006Y-38886496D01*
X62752484Y-38940240D01*
X62808360Y-38968711D01*
X62808363Y-38968712D01*
X62894476Y-38996691D01*
X62980591Y-39024671D01*
X63053639Y-39036240D01*
X63140678Y-39050027D01*
X63203813Y-39079956D01*
X63240744Y-39139268D01*
X63239746Y-39209131D01*
X63201136Y-39267363D01*
X63140678Y-39294973D01*
X62980589Y-39320329D01*
X62808363Y-39376287D01*
X62808360Y-39376288D01*
X62647002Y-39458506D01*
X62500505Y-39564941D01*
X62500500Y-39564945D01*
X62372445Y-39693000D01*
X62372441Y-39693005D01*
X62266006Y-39839502D01*
X62183788Y-40000860D01*
X62183787Y-40000863D01*
X62127829Y-40173089D01*
X62099500Y-40351948D01*
X62099500Y-40533051D01*
X62127829Y-40711910D01*
X62183787Y-40884136D01*
X62183788Y-40884139D01*
X62266006Y-41045497D01*
X62372441Y-41191994D01*
X62372445Y-41191999D01*
X62500500Y-41320054D01*
X62500505Y-41320058D01*
X62628287Y-41412896D01*
X62647006Y-41426496D01*
X62752484Y-41480240D01*
X62808360Y-41508711D01*
X62808363Y-41508712D01*
X62894476Y-41536691D01*
X62980591Y-41564671D01*
X63053639Y-41576240D01*
X63140678Y-41590027D01*
X63203813Y-41619956D01*
X63240744Y-41679268D01*
X63239746Y-41749131D01*
X63201136Y-41807363D01*
X63140678Y-41834973D01*
X62980589Y-41860329D01*
X62808363Y-41916287D01*
X62808360Y-41916288D01*
X62647002Y-41998506D01*
X62500505Y-42104941D01*
X62500500Y-42104945D01*
X62372445Y-42233000D01*
X62372441Y-42233005D01*
X62266006Y-42379502D01*
X62183788Y-42540860D01*
X62183787Y-42540863D01*
X62127829Y-42713089D01*
X62099500Y-42891948D01*
X62099500Y-43073051D01*
X62127829Y-43251910D01*
X62183787Y-43424136D01*
X62183788Y-43424139D01*
X62266006Y-43585497D01*
X62372441Y-43731994D01*
X62372445Y-43731999D01*
X62500500Y-43860054D01*
X62500505Y-43860058D01*
X62604937Y-43935931D01*
X62647006Y-43966496D01*
X62739054Y-44013397D01*
X62808360Y-44048711D01*
X62808363Y-44048712D01*
X62894476Y-44076691D01*
X62980591Y-44104671D01*
X63053639Y-44116240D01*
X63140678Y-44130027D01*
X63203813Y-44159956D01*
X63240744Y-44219268D01*
X63239746Y-44289131D01*
X63201136Y-44347363D01*
X63140678Y-44374973D01*
X62980589Y-44400329D01*
X62808363Y-44456287D01*
X62808360Y-44456288D01*
X62647002Y-44538506D01*
X62500505Y-44644941D01*
X62500500Y-44644945D01*
X62372445Y-44773000D01*
X62372441Y-44773005D01*
X62266006Y-44919502D01*
X62183788Y-45080860D01*
X62183787Y-45080863D01*
X62127829Y-45253089D01*
X62099500Y-45431948D01*
X62099500Y-45613051D01*
X62127829Y-45791910D01*
X62183787Y-45964136D01*
X62183788Y-45964139D01*
X62237305Y-46069169D01*
X62258236Y-46110249D01*
X62266006Y-46125497D01*
X62372441Y-46271994D01*
X62372445Y-46271999D01*
X62500500Y-46400054D01*
X62500505Y-46400058D01*
X62582258Y-46459454D01*
X62647006Y-46506496D01*
X62713201Y-46540224D01*
X62808360Y-46588711D01*
X62808363Y-46588712D01*
X62836522Y-46597861D01*
X62980591Y-46644671D01*
X63053639Y-46656240D01*
X63140678Y-46670027D01*
X63203813Y-46699956D01*
X63240744Y-46759268D01*
X63239746Y-46829131D01*
X63201136Y-46887363D01*
X63140678Y-46914973D01*
X62980589Y-46940329D01*
X62808363Y-46996287D01*
X62808360Y-46996288D01*
X62647002Y-47078506D01*
X62500505Y-47184941D01*
X62500500Y-47184945D01*
X62372445Y-47313000D01*
X62372441Y-47313005D01*
X62266006Y-47459502D01*
X62183788Y-47620860D01*
X62183787Y-47620863D01*
X62127829Y-47793089D01*
X62099500Y-47971948D01*
X62099500Y-48153051D01*
X62127829Y-48331910D01*
X62183787Y-48504136D01*
X62183788Y-48504139D01*
X62211297Y-48558127D01*
X62265585Y-48664672D01*
X62266006Y-48665497D01*
X62372441Y-48811994D01*
X62372445Y-48811999D01*
X62500500Y-48940054D01*
X62500505Y-48940058D01*
X62582258Y-48999454D01*
X62647006Y-49046496D01*
X62752484Y-49100240D01*
X62808360Y-49128711D01*
X62808363Y-49128712D01*
X62872873Y-49149672D01*
X62980591Y-49184671D01*
X63053639Y-49196240D01*
X63140678Y-49210027D01*
X63203813Y-49239956D01*
X63240744Y-49299268D01*
X63239746Y-49369131D01*
X63201136Y-49427363D01*
X63140678Y-49454973D01*
X62980589Y-49480329D01*
X62808363Y-49536287D01*
X62808360Y-49536288D01*
X62647002Y-49618506D01*
X62500505Y-49724941D01*
X62500500Y-49724945D01*
X62372445Y-49853000D01*
X62372441Y-49853005D01*
X62266006Y-49999502D01*
X62183788Y-50160860D01*
X62183787Y-50160863D01*
X62127829Y-50333089D01*
X62099500Y-50511948D01*
X62099500Y-50693051D01*
X62127829Y-50871910D01*
X62183787Y-51044136D01*
X62183788Y-51044139D01*
X62239664Y-51153800D01*
X62257275Y-51188363D01*
X62266006Y-51205497D01*
X62372441Y-51351994D01*
X62372445Y-51351999D01*
X62500500Y-51480054D01*
X62500505Y-51480058D01*
X62582258Y-51539454D01*
X62647006Y-51586496D01*
X62752484Y-51640240D01*
X62808360Y-51668711D01*
X62808363Y-51668712D01*
X62888893Y-51694877D01*
X62980591Y-51724671D01*
X63053639Y-51736240D01*
X63140678Y-51750027D01*
X63203813Y-51779956D01*
X63240744Y-51839268D01*
X63239746Y-51909131D01*
X63201136Y-51967363D01*
X63140678Y-51994973D01*
X62980589Y-52020329D01*
X62808363Y-52076287D01*
X62808360Y-52076288D01*
X62647002Y-52158506D01*
X62500505Y-52264941D01*
X62500500Y-52264945D01*
X62372445Y-52393000D01*
X62372441Y-52393005D01*
X62266006Y-52539502D01*
X62183788Y-52700860D01*
X62183787Y-52700863D01*
X62127829Y-52873089D01*
X62099500Y-53051948D01*
X62099500Y-53233051D01*
X62127829Y-53411910D01*
X62183787Y-53584136D01*
X62183788Y-53584139D01*
X62228009Y-53670926D01*
X62257275Y-53728363D01*
X62266006Y-53745497D01*
X62372441Y-53891994D01*
X62372445Y-53891999D01*
X62500500Y-54020054D01*
X62500505Y-54020058D01*
X62582258Y-54079454D01*
X62647006Y-54126496D01*
X62752484Y-54180240D01*
X62808360Y-54208711D01*
X62808363Y-54208712D01*
X62894476Y-54236691D01*
X62980591Y-54264671D01*
X63053639Y-54276240D01*
X63140678Y-54290027D01*
X63203813Y-54319956D01*
X63240744Y-54379268D01*
X63239746Y-54449131D01*
X63201136Y-54507363D01*
X63140678Y-54534973D01*
X62980589Y-54560329D01*
X62808363Y-54616287D01*
X62808360Y-54616288D01*
X62647002Y-54698506D01*
X62500505Y-54804941D01*
X62500500Y-54804945D01*
X62372445Y-54933000D01*
X62372441Y-54933005D01*
X62266006Y-55079502D01*
X62183788Y-55240860D01*
X62183787Y-55240863D01*
X62127829Y-55413089D01*
X62099500Y-55591948D01*
X62099500Y-55773051D01*
X62127829Y-55951910D01*
X62183787Y-56124136D01*
X62183788Y-56124139D01*
X62239664Y-56233800D01*
X62257275Y-56268363D01*
X62266006Y-56285497D01*
X62372441Y-56431994D01*
X62372445Y-56431999D01*
X62500500Y-56560054D01*
X62500505Y-56560058D01*
X62582258Y-56619454D01*
X62647006Y-56666496D01*
X62752484Y-56720240D01*
X62808360Y-56748711D01*
X62808363Y-56748712D01*
X62894476Y-56776691D01*
X62980591Y-56804671D01*
X63053639Y-56816240D01*
X63140678Y-56830027D01*
X63203813Y-56859956D01*
X63240744Y-56919268D01*
X63239746Y-56989131D01*
X63201136Y-57047363D01*
X63140678Y-57074973D01*
X62980589Y-57100329D01*
X62808363Y-57156287D01*
X62808360Y-57156288D01*
X62647002Y-57238506D01*
X62500505Y-57344941D01*
X62500500Y-57344945D01*
X62372445Y-57473000D01*
X62372441Y-57473005D01*
X62266006Y-57619502D01*
X62183788Y-57780860D01*
X62183787Y-57780863D01*
X62127829Y-57953089D01*
X62099500Y-58131948D01*
X62099500Y-58313051D01*
X62127829Y-58491910D01*
X62183787Y-58664136D01*
X62183788Y-58664139D01*
X62231118Y-58757027D01*
X62259730Y-58813181D01*
X62266006Y-58825497D01*
X62372441Y-58971994D01*
X62372445Y-58971999D01*
X62500500Y-59100054D01*
X62500505Y-59100058D01*
X62582258Y-59159454D01*
X62647006Y-59206496D01*
X62750427Y-59259192D01*
X62808360Y-59288711D01*
X62808363Y-59288712D01*
X62874671Y-59310256D01*
X62980591Y-59344671D01*
X63053639Y-59356240D01*
X63140678Y-59370027D01*
X63203813Y-59399956D01*
X63240744Y-59459268D01*
X63239746Y-59529131D01*
X63201136Y-59587363D01*
X63140678Y-59614973D01*
X62980589Y-59640329D01*
X62808363Y-59696287D01*
X62808360Y-59696288D01*
X62647002Y-59778506D01*
X62500505Y-59884941D01*
X62500500Y-59884945D01*
X62372445Y-60013000D01*
X62372441Y-60013005D01*
X62266006Y-60159502D01*
X62183788Y-60320860D01*
X62183787Y-60320863D01*
X62127829Y-60493089D01*
X62099500Y-60671948D01*
X62099500Y-60853051D01*
X62127829Y-61031910D01*
X62183787Y-61204136D01*
X62183788Y-61204139D01*
X62227653Y-61290226D01*
X62257019Y-61347861D01*
X62266006Y-61365497D01*
X62372441Y-61511994D01*
X62372445Y-61511999D01*
X62500500Y-61640054D01*
X62500505Y-61640058D01*
X62546631Y-61673570D01*
X62647006Y-61746496D01*
X62744694Y-61796271D01*
X62808360Y-61828711D01*
X62808363Y-61828712D01*
X62891814Y-61855826D01*
X62980591Y-61884671D01*
X63053639Y-61896240D01*
X63140678Y-61910027D01*
X63203813Y-61939956D01*
X63240744Y-61999268D01*
X63239746Y-62069131D01*
X63201136Y-62127363D01*
X63140678Y-62154973D01*
X62980589Y-62180329D01*
X62808363Y-62236287D01*
X62808360Y-62236288D01*
X62647002Y-62318506D01*
X62500505Y-62424941D01*
X62500500Y-62424945D01*
X62372445Y-62553000D01*
X62372441Y-62553005D01*
X62266006Y-62699502D01*
X62183788Y-62860860D01*
X62183787Y-62860863D01*
X62127829Y-63033089D01*
X62099500Y-63211948D01*
X62099500Y-63393051D01*
X62127829Y-63571910D01*
X62183787Y-63744136D01*
X62183788Y-63744139D01*
X62266006Y-63905497D01*
X62372441Y-64051994D01*
X62372445Y-64051999D01*
X62500500Y-64180054D01*
X62500505Y-64180058D01*
X62628287Y-64272896D01*
X62647006Y-64286496D01*
X62752484Y-64340240D01*
X62808360Y-64368711D01*
X62808363Y-64368712D01*
X62894476Y-64396691D01*
X62980591Y-64424671D01*
X63053639Y-64436240D01*
X63140678Y-64450027D01*
X63203813Y-64479956D01*
X63240744Y-64539268D01*
X63239746Y-64609131D01*
X63201136Y-64667363D01*
X63140678Y-64694973D01*
X62980589Y-64720329D01*
X62808363Y-64776287D01*
X62808360Y-64776288D01*
X62647002Y-64858506D01*
X62500505Y-64964941D01*
X62500500Y-64964945D01*
X62372445Y-65093000D01*
X62372441Y-65093005D01*
X62266006Y-65239502D01*
X62183788Y-65400860D01*
X62183787Y-65400863D01*
X62127829Y-65573089D01*
X62099500Y-65751948D01*
X62099500Y-65933051D01*
X62127829Y-66111910D01*
X62183787Y-66284136D01*
X62183788Y-66284139D01*
X62217092Y-66349500D01*
X62254815Y-66423535D01*
X62266006Y-66445497D01*
X62372441Y-66591994D01*
X62372445Y-66591999D01*
X62500500Y-66720054D01*
X62500505Y-66720058D01*
X62624648Y-66810252D01*
X62647006Y-66826496D01*
X62737462Y-66872586D01*
X62808360Y-66908711D01*
X62808363Y-66908712D01*
X62892128Y-66935928D01*
X62980591Y-66964671D01*
X63053639Y-66976240D01*
X63140678Y-66990027D01*
X63203813Y-67019956D01*
X63240744Y-67079268D01*
X63239746Y-67149131D01*
X63201136Y-67207363D01*
X63140678Y-67234973D01*
X62980589Y-67260329D01*
X62808363Y-67316287D01*
X62808360Y-67316288D01*
X62647002Y-67398506D01*
X62500505Y-67504941D01*
X62500500Y-67504945D01*
X62372445Y-67633000D01*
X62372441Y-67633005D01*
X62266006Y-67779502D01*
X62183788Y-67940860D01*
X62183787Y-67940863D01*
X62127829Y-68113089D01*
X62099500Y-68291948D01*
X62099500Y-68473051D01*
X62127829Y-68651910D01*
X62183787Y-68824136D01*
X62183788Y-68824139D01*
X62266006Y-68985497D01*
X62372441Y-69131994D01*
X62372445Y-69131999D01*
X62500500Y-69260054D01*
X62500505Y-69260058D01*
X62628287Y-69352896D01*
X62647006Y-69366496D01*
X62752484Y-69420240D01*
X62808360Y-69448711D01*
X62808363Y-69448712D01*
X62894476Y-69476691D01*
X62980591Y-69504671D01*
X63053639Y-69516240D01*
X63140678Y-69530027D01*
X63203813Y-69559956D01*
X63240744Y-69619268D01*
X63239746Y-69689131D01*
X63201136Y-69747363D01*
X63140678Y-69774973D01*
X62980589Y-69800329D01*
X62808363Y-69856287D01*
X62808360Y-69856288D01*
X62647002Y-69938506D01*
X62500505Y-70044941D01*
X62500500Y-70044945D01*
X62372445Y-70173000D01*
X62372441Y-70173005D01*
X62266006Y-70319502D01*
X62183788Y-70480860D01*
X62183787Y-70480863D01*
X62127829Y-70653089D01*
X62099500Y-70831948D01*
X62099500Y-71013051D01*
X62127829Y-71191910D01*
X62183787Y-71364136D01*
X62183788Y-71364139D01*
X62266006Y-71525497D01*
X62372441Y-71671994D01*
X62372445Y-71671999D01*
X62500500Y-71800054D01*
X62500505Y-71800058D01*
X62628287Y-71892896D01*
X62647006Y-71906496D01*
X62752484Y-71960240D01*
X62808360Y-71988711D01*
X62808363Y-71988712D01*
X62894476Y-72016691D01*
X62980591Y-72044671D01*
X63053639Y-72056240D01*
X63140678Y-72070027D01*
X63203813Y-72099956D01*
X63240744Y-72159268D01*
X63239746Y-72229131D01*
X63201136Y-72287363D01*
X63140678Y-72314973D01*
X62980589Y-72340329D01*
X62808363Y-72396287D01*
X62808360Y-72396288D01*
X62647002Y-72478506D01*
X62500505Y-72584941D01*
X62500500Y-72584945D01*
X62372445Y-72713000D01*
X62372441Y-72713005D01*
X62266006Y-72859502D01*
X62183788Y-73020860D01*
X62183787Y-73020863D01*
X62127829Y-73193089D01*
X62099500Y-73371948D01*
X62099500Y-73553051D01*
X62127829Y-73731910D01*
X62183787Y-73904136D01*
X62183788Y-73904139D01*
X62266006Y-74065497D01*
X62372441Y-74211994D01*
X62372445Y-74211999D01*
X62500500Y-74340054D01*
X62500505Y-74340058D01*
X62628287Y-74432896D01*
X62647006Y-74446496D01*
X62752484Y-74500240D01*
X62808360Y-74528711D01*
X62808363Y-74528712D01*
X62894476Y-74556691D01*
X62980591Y-74584671D01*
X63063429Y-74597791D01*
X63159449Y-74613000D01*
X63159454Y-74613000D01*
X63340551Y-74613000D01*
X63427259Y-74599265D01*
X63519409Y-74584671D01*
X63691639Y-74528711D01*
X63852994Y-74446496D01*
X63999501Y-74340053D01*
X64127553Y-74212001D01*
X64233996Y-74065494D01*
X64316211Y-73904139D01*
X64372171Y-73731909D01*
X64386765Y-73639759D01*
X64400500Y-73553051D01*
X64400500Y-73371948D01*
X64384019Y-73267897D01*
X64372171Y-73193091D01*
X64316211Y-73020861D01*
X64316211Y-73020860D01*
X64287740Y-72964984D01*
X64233996Y-72859506D01*
X64220396Y-72840787D01*
X64127558Y-72713005D01*
X64127554Y-72713000D01*
X63999499Y-72584945D01*
X63999494Y-72584941D01*
X63852997Y-72478506D01*
X63852996Y-72478505D01*
X63852994Y-72478504D01*
X63801300Y-72452164D01*
X63691639Y-72396288D01*
X63691636Y-72396287D01*
X63519410Y-72340329D01*
X63359321Y-72314973D01*
X63296186Y-72285044D01*
X63259255Y-72225732D01*
X63260253Y-72155870D01*
X63298863Y-72097637D01*
X63359321Y-72070027D01*
X63429425Y-72058922D01*
X63519409Y-72044671D01*
X63691639Y-71988711D01*
X63852994Y-71906496D01*
X63999501Y-71800053D01*
X64127553Y-71672001D01*
X64233996Y-71525494D01*
X64316211Y-71364139D01*
X64372171Y-71191909D01*
X64389443Y-71082856D01*
X64400500Y-71013051D01*
X64400500Y-70831948D01*
X64379385Y-70698638D01*
X64372171Y-70653091D01*
X64316211Y-70480861D01*
X64316211Y-70480860D01*
X64287740Y-70424984D01*
X64233996Y-70319506D01*
X64220396Y-70300787D01*
X64127558Y-70173005D01*
X64127554Y-70173000D01*
X63999499Y-70044945D01*
X63999494Y-70044941D01*
X63852997Y-69938506D01*
X63852996Y-69938505D01*
X63852994Y-69938504D01*
X63801300Y-69912164D01*
X63691639Y-69856288D01*
X63691636Y-69856287D01*
X63519410Y-69800329D01*
X63359321Y-69774973D01*
X63296186Y-69745044D01*
X63259255Y-69685732D01*
X63260253Y-69615870D01*
X63298863Y-69557637D01*
X63359321Y-69530027D01*
X63429425Y-69518922D01*
X63519409Y-69504671D01*
X63691639Y-69448711D01*
X63852994Y-69366496D01*
X63999501Y-69260053D01*
X64127553Y-69132001D01*
X64233996Y-68985494D01*
X64316211Y-68824139D01*
X64372171Y-68651909D01*
X64395050Y-68507457D01*
X64400500Y-68473051D01*
X64400500Y-68291948D01*
X64378817Y-68155054D01*
X64372171Y-68113091D01*
X64316211Y-67940861D01*
X64316211Y-67940860D01*
X64270237Y-67850633D01*
X64233996Y-67779506D01*
X64170329Y-67691875D01*
X64127558Y-67633005D01*
X64127554Y-67633000D01*
X63999499Y-67504945D01*
X63999494Y-67504941D01*
X63852997Y-67398506D01*
X63852996Y-67398505D01*
X63852994Y-67398504D01*
X63787985Y-67365380D01*
X63691639Y-67316288D01*
X63691636Y-67316287D01*
X63519410Y-67260329D01*
X63359321Y-67234973D01*
X63296186Y-67205044D01*
X63259255Y-67145732D01*
X63260253Y-67075870D01*
X63298863Y-67017637D01*
X63359321Y-66990027D01*
X63429425Y-66978922D01*
X63519409Y-66964671D01*
X63691639Y-66908711D01*
X63852994Y-66826496D01*
X63999501Y-66720053D01*
X64127553Y-66592001D01*
X64233996Y-66445494D01*
X64316211Y-66284139D01*
X64372171Y-66111909D01*
X64386765Y-66019759D01*
X64400500Y-65933051D01*
X64400500Y-65751948D01*
X64384019Y-65647897D01*
X64372171Y-65573091D01*
X64316211Y-65400861D01*
X64316211Y-65400860D01*
X64287740Y-65344984D01*
X64233996Y-65239506D01*
X64220396Y-65220787D01*
X64127558Y-65093005D01*
X64127554Y-65093000D01*
X63999499Y-64964945D01*
X63999494Y-64964941D01*
X63852997Y-64858506D01*
X63852996Y-64858505D01*
X63852994Y-64858504D01*
X63801300Y-64832164D01*
X63691639Y-64776288D01*
X63691636Y-64776287D01*
X63519410Y-64720329D01*
X63359321Y-64694973D01*
X63296186Y-64665044D01*
X63259255Y-64605732D01*
X63260253Y-64535870D01*
X63298863Y-64477637D01*
X63359321Y-64450027D01*
X63429425Y-64438922D01*
X63519409Y-64424671D01*
X63691639Y-64368711D01*
X63852994Y-64286496D01*
X63999501Y-64180053D01*
X64127553Y-64052001D01*
X64233996Y-63905494D01*
X64316211Y-63744139D01*
X64372171Y-63571909D01*
X64386765Y-63479759D01*
X64400500Y-63393051D01*
X64400500Y-63211948D01*
X64384019Y-63107897D01*
X64372171Y-63033091D01*
X64316211Y-62860861D01*
X64316211Y-62860860D01*
X64287740Y-62804984D01*
X64233996Y-62699506D01*
X64220396Y-62680787D01*
X64127558Y-62553005D01*
X64127554Y-62553000D01*
X63999499Y-62424945D01*
X63999494Y-62424941D01*
X63852997Y-62318506D01*
X63852996Y-62318505D01*
X63852994Y-62318504D01*
X63797052Y-62290000D01*
X63691639Y-62236288D01*
X63691636Y-62236287D01*
X63519410Y-62180329D01*
X63359321Y-62154973D01*
X63296186Y-62125044D01*
X63259255Y-62065732D01*
X63260253Y-61995870D01*
X63298863Y-61937637D01*
X63359321Y-61910027D01*
X63429425Y-61898922D01*
X63519409Y-61884671D01*
X63685424Y-61830730D01*
X63691636Y-61828712D01*
X63691639Y-61828711D01*
X63702219Y-61823320D01*
X63852994Y-61746496D01*
X63999501Y-61640053D01*
X64127553Y-61512001D01*
X64233996Y-61365494D01*
X64316211Y-61204139D01*
X64372171Y-61031909D01*
X64398953Y-60862815D01*
X64400500Y-60853051D01*
X64400500Y-60671948D01*
X64379427Y-60538904D01*
X64372171Y-60493091D01*
X64316211Y-60320861D01*
X64316211Y-60320860D01*
X64271949Y-60233993D01*
X64233996Y-60159506D01*
X64182141Y-60088133D01*
X64127558Y-60013005D01*
X64127554Y-60013000D01*
X63999499Y-59884945D01*
X63999494Y-59884941D01*
X63852997Y-59778506D01*
X63852996Y-59778505D01*
X63852994Y-59778504D01*
X63801300Y-59752164D01*
X63691639Y-59696288D01*
X63691636Y-59696287D01*
X63519410Y-59640329D01*
X63359321Y-59614973D01*
X63296186Y-59585044D01*
X63259255Y-59525732D01*
X63260253Y-59455870D01*
X63298863Y-59397637D01*
X63359321Y-59370027D01*
X63429425Y-59358922D01*
X63519409Y-59344671D01*
X63691639Y-59288711D01*
X63852994Y-59206496D01*
X63999501Y-59100053D01*
X64127553Y-58972001D01*
X64233996Y-58825494D01*
X64316211Y-58664139D01*
X64372171Y-58491909D01*
X64400338Y-58314071D01*
X64400500Y-58313051D01*
X64400500Y-58131948D01*
X64381696Y-58013232D01*
X64372171Y-57953091D01*
X64316211Y-57780861D01*
X64316211Y-57780860D01*
X64269781Y-57689738D01*
X64233996Y-57619506D01*
X64210781Y-57587553D01*
X64127558Y-57473005D01*
X64127554Y-57473000D01*
X63999499Y-57344945D01*
X63999494Y-57344941D01*
X63852997Y-57238506D01*
X63852996Y-57238505D01*
X63852994Y-57238504D01*
X63801300Y-57212164D01*
X63691639Y-57156288D01*
X63691636Y-57156287D01*
X63519410Y-57100329D01*
X63359321Y-57074973D01*
X63296186Y-57045044D01*
X63259255Y-56985732D01*
X63260253Y-56915870D01*
X63298863Y-56857637D01*
X63359321Y-56830027D01*
X63429425Y-56818922D01*
X63519409Y-56804671D01*
X63691639Y-56748711D01*
X63852994Y-56666496D01*
X63999501Y-56560053D01*
X64127553Y-56432001D01*
X64233996Y-56285494D01*
X64316211Y-56124139D01*
X64372171Y-55951909D01*
X64391093Y-55832441D01*
X64400500Y-55773051D01*
X64400500Y-55591948D01*
X64381696Y-55473232D01*
X64372171Y-55413091D01*
X64316211Y-55240861D01*
X64316211Y-55240860D01*
X64271949Y-55153993D01*
X64233996Y-55079506D01*
X64210781Y-55047553D01*
X64127558Y-54933005D01*
X64127554Y-54933000D01*
X63999499Y-54804945D01*
X63999494Y-54804941D01*
X63852997Y-54698506D01*
X63852996Y-54698505D01*
X63852994Y-54698504D01*
X63801300Y-54672164D01*
X63691639Y-54616288D01*
X63691636Y-54616287D01*
X63519410Y-54560329D01*
X63359321Y-54534973D01*
X63296186Y-54505044D01*
X63259255Y-54445732D01*
X63260253Y-54375870D01*
X63298863Y-54317637D01*
X63359321Y-54290027D01*
X63429425Y-54278922D01*
X63519409Y-54264671D01*
X63691639Y-54208711D01*
X63852994Y-54126496D01*
X63999501Y-54020053D01*
X64127553Y-53892001D01*
X64233996Y-53745494D01*
X64316211Y-53584139D01*
X64372171Y-53411909D01*
X64391093Y-53292441D01*
X64400500Y-53233051D01*
X64400500Y-53051948D01*
X64381696Y-52933232D01*
X64372171Y-52873091D01*
X64316211Y-52700861D01*
X64316211Y-52700860D01*
X64271949Y-52613993D01*
X64233996Y-52539506D01*
X64139505Y-52409449D01*
X64127558Y-52393005D01*
X64127554Y-52393000D01*
X63999499Y-52264945D01*
X63999494Y-52264941D01*
X63852997Y-52158506D01*
X63852996Y-52158505D01*
X63852994Y-52158504D01*
X63801300Y-52132164D01*
X63691639Y-52076288D01*
X63691636Y-52076287D01*
X63519410Y-52020329D01*
X63359321Y-51994973D01*
X63296186Y-51965044D01*
X63259255Y-51905732D01*
X63260253Y-51835870D01*
X63298863Y-51777637D01*
X63359321Y-51750027D01*
X63429425Y-51738922D01*
X63519409Y-51724671D01*
X63691639Y-51668711D01*
X63852994Y-51586496D01*
X63999501Y-51480053D01*
X64127553Y-51352001D01*
X64233996Y-51205494D01*
X64316211Y-51044139D01*
X64372171Y-50871909D01*
X64392315Y-50744724D01*
X64400500Y-50693051D01*
X64400500Y-50511948D01*
X64381120Y-50389591D01*
X64372171Y-50333091D01*
X64320329Y-50173535D01*
X64316212Y-50160863D01*
X64316211Y-50160860D01*
X64271949Y-50073993D01*
X64233996Y-49999506D01*
X64210781Y-49967553D01*
X64127558Y-49853005D01*
X64127554Y-49853000D01*
X63999499Y-49724945D01*
X63999494Y-49724941D01*
X63852997Y-49618506D01*
X63852996Y-49618505D01*
X63852994Y-49618504D01*
X63801300Y-49592164D01*
X63691639Y-49536288D01*
X63691636Y-49536287D01*
X63519410Y-49480329D01*
X63359321Y-49454973D01*
X63296186Y-49425044D01*
X63259255Y-49365732D01*
X63260253Y-49295870D01*
X63298863Y-49237637D01*
X63359321Y-49210027D01*
X63429425Y-49198922D01*
X63519409Y-49184671D01*
X63691639Y-49128711D01*
X63852994Y-49046496D01*
X63999501Y-48940053D01*
X64127553Y-48812001D01*
X64233996Y-48665494D01*
X64316211Y-48504139D01*
X64372171Y-48331909D01*
X64395292Y-48185931D01*
X64400500Y-48153051D01*
X64400500Y-47971948D01*
X64378860Y-47835327D01*
X64372171Y-47793091D01*
X64332882Y-47672170D01*
X64316212Y-47620863D01*
X64316211Y-47620860D01*
X64258427Y-47507455D01*
X64233996Y-47459506D01*
X64207862Y-47423535D01*
X64127558Y-47313005D01*
X64127554Y-47313000D01*
X63999499Y-47184945D01*
X63999494Y-47184941D01*
X63852997Y-47078506D01*
X63852996Y-47078505D01*
X63852994Y-47078504D01*
X63801300Y-47052164D01*
X63691639Y-46996288D01*
X63691636Y-46996287D01*
X63519410Y-46940329D01*
X63359321Y-46914973D01*
X63296186Y-46885044D01*
X63259255Y-46825732D01*
X63260253Y-46755870D01*
X63298863Y-46697637D01*
X63359321Y-46670027D01*
X63429425Y-46658922D01*
X63519409Y-46644671D01*
X63691639Y-46588711D01*
X63852994Y-46506496D01*
X63999501Y-46400053D01*
X64127553Y-46272001D01*
X64233996Y-46125494D01*
X64316211Y-45964139D01*
X64372171Y-45791909D01*
X64391093Y-45672441D01*
X64400500Y-45613051D01*
X64400500Y-45431948D01*
X64380887Y-45308124D01*
X64372171Y-45253091D01*
X64336467Y-45143204D01*
X64316212Y-45080863D01*
X64316211Y-45080860D01*
X64287740Y-45024984D01*
X64233996Y-44919506D01*
X64156747Y-44813181D01*
X64127558Y-44773005D01*
X64127554Y-44773000D01*
X63999499Y-44644945D01*
X63999494Y-44644941D01*
X63852997Y-44538506D01*
X63852996Y-44538505D01*
X63852994Y-44538504D01*
X63801300Y-44512164D01*
X63691639Y-44456288D01*
X63691636Y-44456287D01*
X63519410Y-44400329D01*
X63359321Y-44374973D01*
X63296186Y-44345044D01*
X63259255Y-44285732D01*
X63260253Y-44215870D01*
X63298863Y-44157637D01*
X63359321Y-44130027D01*
X63429425Y-44118922D01*
X63519409Y-44104671D01*
X63691639Y-44048711D01*
X63852994Y-43966496D01*
X63999501Y-43860053D01*
X64127553Y-43732001D01*
X64233996Y-43585494D01*
X64316211Y-43424139D01*
X64372171Y-43251909D01*
X64393834Y-43115135D01*
X64400500Y-43073051D01*
X64400500Y-42891948D01*
X64384019Y-42787897D01*
X64372171Y-42713091D01*
X64316211Y-42540861D01*
X64316211Y-42540860D01*
X64279822Y-42469445D01*
X64233996Y-42379506D01*
X64182141Y-42308133D01*
X64127558Y-42233005D01*
X64127554Y-42233000D01*
X63999499Y-42104945D01*
X63999494Y-42104941D01*
X63852997Y-41998506D01*
X63852996Y-41998505D01*
X63852994Y-41998504D01*
X63801300Y-41972164D01*
X63691639Y-41916288D01*
X63691636Y-41916287D01*
X63519410Y-41860329D01*
X63359321Y-41834973D01*
X63296186Y-41805044D01*
X63259255Y-41745732D01*
X63260253Y-41675870D01*
X63298863Y-41617637D01*
X63359321Y-41590027D01*
X63429425Y-41578922D01*
X63519409Y-41564671D01*
X63691639Y-41508711D01*
X63852994Y-41426496D01*
X63999501Y-41320053D01*
X64127553Y-41192001D01*
X64233996Y-41045494D01*
X64316211Y-40884139D01*
X64372171Y-40711909D01*
X64393217Y-40579032D01*
X64400500Y-40533051D01*
X64400500Y-40351948D01*
X64379981Y-40222402D01*
X64372171Y-40173091D01*
X64335041Y-40058814D01*
X64316212Y-40000863D01*
X64316211Y-40000860D01*
X64287740Y-39944984D01*
X64233996Y-39839506D01*
X64175172Y-39758541D01*
X64127558Y-39693005D01*
X64127554Y-39693000D01*
X63999499Y-39564945D01*
X63999494Y-39564941D01*
X63852997Y-39458506D01*
X63852996Y-39458505D01*
X63852994Y-39458504D01*
X63801300Y-39432164D01*
X63691639Y-39376288D01*
X63691636Y-39376287D01*
X63519410Y-39320329D01*
X63359321Y-39294973D01*
X63296186Y-39265044D01*
X63259255Y-39205732D01*
X63260253Y-39135870D01*
X63298863Y-39077637D01*
X63359321Y-39050027D01*
X63429425Y-39038922D01*
X63519409Y-39024671D01*
X63691639Y-38968711D01*
X63852994Y-38886496D01*
X63999501Y-38780053D01*
X64127553Y-38652001D01*
X64233996Y-38505494D01*
X64316211Y-38344139D01*
X64372171Y-38171909D01*
X64386765Y-38079759D01*
X64400500Y-37993051D01*
X64400500Y-37811948D01*
X64384019Y-37707897D01*
X64372171Y-37633091D01*
X64316211Y-37460861D01*
X64316211Y-37460860D01*
X64287740Y-37404984D01*
X64233996Y-37299506D01*
X64220396Y-37280787D01*
X64127558Y-37153005D01*
X64127554Y-37153000D01*
X63999499Y-37024945D01*
X63999494Y-37024941D01*
X63852997Y-36918506D01*
X63852996Y-36918505D01*
X63852994Y-36918504D01*
X63801300Y-36892164D01*
X63691639Y-36836288D01*
X63691636Y-36836287D01*
X63519410Y-36780329D01*
X63387728Y-36759472D01*
X63324594Y-36729542D01*
X63287663Y-36670231D01*
X63288661Y-36600368D01*
X63327271Y-36542136D01*
X63391235Y-36514022D01*
X63407120Y-36512999D01*
X64144864Y-36512999D01*
X64144879Y-36512997D01*
X64144882Y-36512997D01*
X64169987Y-36510086D01*
X64169988Y-36510085D01*
X64169991Y-36510085D01*
X64272765Y-36464706D01*
X64352206Y-36385265D01*
X64397585Y-36282491D01*
X64400500Y-36257365D01*
X64400499Y-34467636D01*
X64400497Y-34467617D01*
X64397586Y-34442512D01*
X64397585Y-34442510D01*
X64397585Y-34442509D01*
X64352206Y-34339735D01*
X64272765Y-34260294D01*
X64272763Y-34260293D01*
X64169992Y-34214915D01*
X64144865Y-34212000D01*
X62355143Y-34212000D01*
X62355117Y-34212002D01*
X62330012Y-34214913D01*
X62330008Y-34214915D01*
X62227235Y-34260293D01*
X62147794Y-34339734D01*
X62102415Y-34442506D01*
X62102415Y-34442508D01*
X62099500Y-34467631D01*
X50005500Y-34467631D01*
X50005500Y-33312000D01*
X49997509Y-33222474D01*
X49989730Y-33179245D01*
X49966008Y-33092542D01*
X49897166Y-32966200D01*
X49855345Y-32910229D01*
X49855343Y-32910226D01*
X49753700Y-32808400D01*
X49055100Y-32284449D01*
X49013279Y-32228478D01*
X49005500Y-32185249D01*
X49005500Y-26301359D01*
X49002602Y-26247311D01*
X49002602Y-26247310D01*
X48999770Y-26220977D01*
X48999767Y-26220950D01*
X48991114Y-26167554D01*
X48991114Y-26167552D01*
X48940833Y-26032747D01*
X48940832Y-26032743D01*
X48907347Y-25971420D01*
X48821123Y-25856239D01*
X48821118Y-25856234D01*
X48821113Y-25856228D01*
X48393776Y-25428892D01*
X48393770Y-25428886D01*
X48393761Y-25428877D01*
X48393737Y-25428855D01*
X48353519Y-25392728D01*
X48353507Y-25392718D01*
X48332856Y-25376076D01*
X48288974Y-25344433D01*
X48158100Y-25284663D01*
X48091055Y-25264976D01*
X48043582Y-25258150D01*
X47948638Y-25244500D01*
X44051362Y-25244500D01*
X44051360Y-25244500D01*
X43997311Y-25247397D01*
X43997310Y-25247397D01*
X43970977Y-25250229D01*
X43970950Y-25250232D01*
X43917554Y-25258885D01*
X43917552Y-25258885D01*
X43782747Y-25309166D01*
X43721422Y-25342651D01*
X43606240Y-25428876D01*
X43606228Y-25428886D01*
X43178892Y-25856223D01*
X43178855Y-25856262D01*
X43142728Y-25896480D01*
X43142718Y-25896492D01*
X43126076Y-25917143D01*
X43094433Y-25961025D01*
X43034663Y-26091899D01*
X43014976Y-26158944D01*
X43013738Y-26167554D01*
X42994501Y-26301359D01*
X42994500Y-26301363D01*
X26250500Y-26301363D01*
X26250500Y-23003750D01*
X26250726Y-22996263D01*
X26256929Y-22893713D01*
X27399500Y-22893713D01*
X27399500Y-23106286D01*
X27413018Y-23191639D01*
X27432754Y-23316243D01*
X27496267Y-23511716D01*
X27498444Y-23518414D01*
X27594951Y-23707820D01*
X27719890Y-23879786D01*
X27870213Y-24030109D01*
X28042179Y-24155048D01*
X28042181Y-24155049D01*
X28042184Y-24155051D01*
X28231588Y-24251557D01*
X28433757Y-24317246D01*
X28643713Y-24350500D01*
X28643714Y-24350500D01*
X28856286Y-24350500D01*
X28856287Y-24350500D01*
X29066243Y-24317246D01*
X29268412Y-24251557D01*
X29457816Y-24155051D01*
X29533588Y-24100000D01*
X29629786Y-24030109D01*
X29629788Y-24030106D01*
X29629792Y-24030104D01*
X29780104Y-23879792D01*
X29780106Y-23879788D01*
X29780109Y-23879786D01*
X29905048Y-23707820D01*
X29905047Y-23707820D01*
X29905051Y-23707816D01*
X30001557Y-23518412D01*
X30067246Y-23316243D01*
X30100500Y-23106287D01*
X30100500Y-22893713D01*
X30067246Y-22683757D01*
X30001557Y-22481588D01*
X29905051Y-22292184D01*
X29905049Y-22292181D01*
X29905048Y-22292179D01*
X29780109Y-22120213D01*
X29629792Y-21969896D01*
X29604985Y-21951873D01*
X29604983Y-21951870D01*
X29471831Y-21855131D01*
X49039500Y-21855131D01*
X49039500Y-23644856D01*
X49039502Y-23644882D01*
X49042413Y-23669987D01*
X49042415Y-23669991D01*
X49087793Y-23772764D01*
X49087794Y-23772765D01*
X49167235Y-23852206D01*
X49270009Y-23897585D01*
X49295135Y-23900500D01*
X51084864Y-23900499D01*
X51084879Y-23900497D01*
X51084882Y-23900497D01*
X51109987Y-23897586D01*
X51109988Y-23897585D01*
X51109991Y-23897585D01*
X51212765Y-23852206D01*
X51292206Y-23772765D01*
X51337585Y-23669991D01*
X51340500Y-23644865D01*
X51340499Y-22907125D01*
X51360183Y-22840089D01*
X51412987Y-22794334D01*
X51482146Y-22784390D01*
X51545702Y-22813415D01*
X51583476Y-22872193D01*
X51586972Y-22887729D01*
X51607829Y-23019410D01*
X51663787Y-23191636D01*
X51663788Y-23191639D01*
X51746006Y-23352997D01*
X51852441Y-23499494D01*
X51852445Y-23499499D01*
X51980500Y-23627554D01*
X51980505Y-23627558D01*
X52090972Y-23707816D01*
X52127006Y-23733996D01*
X52203094Y-23772765D01*
X52288360Y-23816211D01*
X52288363Y-23816212D01*
X52374476Y-23844191D01*
X52460591Y-23872171D01*
X52543429Y-23885291D01*
X52639449Y-23900500D01*
X52639454Y-23900500D01*
X52820551Y-23900500D01*
X52907259Y-23886765D01*
X52999409Y-23872171D01*
X53171639Y-23816211D01*
X53332994Y-23733996D01*
X53455669Y-23644868D01*
X53479495Y-23627558D01*
X53479497Y-23627555D01*
X53479501Y-23627553D01*
X53607553Y-23499501D01*
X53713996Y-23352994D01*
X53781090Y-23221314D01*
X53829065Y-23170519D01*
X53896886Y-23153724D01*
X53963021Y-23176262D01*
X54006472Y-23230977D01*
X54009506Y-23239292D01*
X54018904Y-23268217D01*
X54115375Y-23457550D01*
X54154728Y-23511716D01*
X54787037Y-22879408D01*
X54804075Y-22942993D01*
X54869901Y-23057007D01*
X54962993Y-23150099D01*
X55077007Y-23215925D01*
X55140590Y-23232962D01*
X54508282Y-23865269D01*
X54508282Y-23865270D01*
X54562449Y-23904624D01*
X54751782Y-24001095D01*
X54953870Y-24066757D01*
X55163754Y-24100000D01*
X55376246Y-24100000D01*
X55586127Y-24066757D01*
X55586130Y-24066757D01*
X55788217Y-24001095D01*
X55977554Y-23904622D01*
X56031716Y-23865270D01*
X56031717Y-23865270D01*
X55399408Y-23232962D01*
X55462993Y-23215925D01*
X55577007Y-23150099D01*
X55670099Y-23057007D01*
X55735925Y-22942993D01*
X55752962Y-22879408D01*
X56385270Y-23511717D01*
X56385270Y-23511716D01*
X56424622Y-23457554D01*
X56429514Y-23447954D01*
X56477488Y-23397157D01*
X56545308Y-23380361D01*
X56611444Y-23402897D01*
X56650486Y-23447954D01*
X56655375Y-23457550D01*
X56694728Y-23511716D01*
X57327037Y-22879408D01*
X57344075Y-22942993D01*
X57409901Y-23057007D01*
X57502993Y-23150099D01*
X57617007Y-23215925D01*
X57680590Y-23232962D01*
X57048282Y-23865269D01*
X57048282Y-23865270D01*
X57102449Y-23904624D01*
X57291782Y-24001095D01*
X57493870Y-24066757D01*
X57703754Y-24100000D01*
X57916246Y-24100000D01*
X58126127Y-24066757D01*
X58126130Y-24066757D01*
X58328217Y-24001095D01*
X58517554Y-23904622D01*
X58571716Y-23865270D01*
X58571717Y-23865270D01*
X57939408Y-23232962D01*
X58002993Y-23215925D01*
X58117007Y-23150099D01*
X58210099Y-23057007D01*
X58275925Y-22942993D01*
X58292962Y-22879408D01*
X58925270Y-23511717D01*
X58925270Y-23511716D01*
X58964622Y-23457554D01*
X59061095Y-23268217D01*
X59126757Y-23066130D01*
X59126757Y-23066127D01*
X59154066Y-22893713D01*
X61399500Y-22893713D01*
X61399500Y-23106286D01*
X61413018Y-23191639D01*
X61432754Y-23316243D01*
X61496267Y-23511716D01*
X61498444Y-23518414D01*
X61594951Y-23707820D01*
X61719890Y-23879786D01*
X61870213Y-24030109D01*
X62042179Y-24155048D01*
X62042181Y-24155049D01*
X62042184Y-24155051D01*
X62231588Y-24251557D01*
X62433757Y-24317246D01*
X62643713Y-24350500D01*
X62643714Y-24350500D01*
X62856286Y-24350500D01*
X62856287Y-24350500D01*
X63066243Y-24317246D01*
X63268412Y-24251557D01*
X63457816Y-24155051D01*
X63533588Y-24100000D01*
X63629786Y-24030109D01*
X63629788Y-24030106D01*
X63629792Y-24030104D01*
X63780104Y-23879792D01*
X63780106Y-23879788D01*
X63780109Y-23879786D01*
X63905048Y-23707820D01*
X63905047Y-23707820D01*
X63905051Y-23707816D01*
X64001557Y-23518412D01*
X64067246Y-23316243D01*
X64100500Y-23106287D01*
X64100500Y-22893713D01*
X64067246Y-22683757D01*
X64001557Y-22481588D01*
X63905051Y-22292184D01*
X63905049Y-22292181D01*
X63905048Y-22292179D01*
X63780109Y-22120213D01*
X63629786Y-21969890D01*
X63457820Y-21844951D01*
X63268414Y-21748444D01*
X63268413Y-21748443D01*
X63268412Y-21748443D01*
X63066243Y-21682754D01*
X63066241Y-21682753D01*
X63066240Y-21682753D01*
X62904957Y-21657208D01*
X62856287Y-21649500D01*
X62643713Y-21649500D01*
X62595042Y-21657208D01*
X62433760Y-21682753D01*
X62231585Y-21748444D01*
X62042179Y-21844951D01*
X61870213Y-21969890D01*
X61719890Y-22120213D01*
X61594951Y-22292179D01*
X61498444Y-22481585D01*
X61432753Y-22683760D01*
X61399500Y-22893713D01*
X59154066Y-22893713D01*
X59157892Y-22869555D01*
X59157909Y-22869444D01*
X59160000Y-22856241D01*
X59160000Y-22643753D01*
X59126757Y-22433872D01*
X59126757Y-22433869D01*
X59061095Y-22231782D01*
X58964624Y-22042449D01*
X58925270Y-21988282D01*
X58925269Y-21988282D01*
X58292962Y-22620590D01*
X58275925Y-22557007D01*
X58210099Y-22442993D01*
X58117007Y-22349901D01*
X58002993Y-22284075D01*
X57939409Y-22267037D01*
X58571716Y-21634728D01*
X58517550Y-21595375D01*
X58328217Y-21498904D01*
X58126129Y-21433242D01*
X57916246Y-21400000D01*
X57703754Y-21400000D01*
X57493872Y-21433242D01*
X57493869Y-21433242D01*
X57291782Y-21498904D01*
X57102439Y-21595380D01*
X57048282Y-21634727D01*
X57048282Y-21634728D01*
X57680591Y-22267037D01*
X57617007Y-22284075D01*
X57502993Y-22349901D01*
X57409901Y-22442993D01*
X57344075Y-22557007D01*
X57327037Y-22620591D01*
X56694728Y-21988282D01*
X56694727Y-21988282D01*
X56655380Y-22042440D01*
X56650483Y-22052051D01*
X56602506Y-22102845D01*
X56534684Y-22119638D01*
X56468550Y-22097098D01*
X56429516Y-22052048D01*
X56424626Y-22042452D01*
X56385270Y-21988282D01*
X56385269Y-21988282D01*
X55752962Y-22620590D01*
X55735925Y-22557007D01*
X55670099Y-22442993D01*
X55577007Y-22349901D01*
X55462993Y-22284075D01*
X55399409Y-22267037D01*
X56031716Y-21634728D01*
X55977550Y-21595375D01*
X55788217Y-21498904D01*
X55586129Y-21433242D01*
X55376246Y-21400000D01*
X55163754Y-21400000D01*
X54953872Y-21433242D01*
X54953869Y-21433242D01*
X54751782Y-21498904D01*
X54562439Y-21595380D01*
X54508282Y-21634727D01*
X54508282Y-21634728D01*
X55140591Y-22267037D01*
X55077007Y-22284075D01*
X54962993Y-22349901D01*
X54869901Y-22442993D01*
X54804075Y-22557007D01*
X54787037Y-22620591D01*
X54154728Y-21988282D01*
X54154727Y-21988282D01*
X54115380Y-22042439D01*
X54018905Y-22231781D01*
X54009506Y-22260708D01*
X53970068Y-22318383D01*
X53905709Y-22345581D01*
X53836862Y-22333666D01*
X53785387Y-22286421D01*
X53781090Y-22278684D01*
X53714717Y-22148422D01*
X53713996Y-22147006D01*
X53694112Y-22119638D01*
X53607558Y-22000505D01*
X53607554Y-22000500D01*
X53479499Y-21872445D01*
X53479494Y-21872441D01*
X53355432Y-21782305D01*
X53332996Y-21766005D01*
X53171639Y-21683788D01*
X53171636Y-21683787D01*
X52999410Y-21627829D01*
X52820551Y-21599500D01*
X52820546Y-21599500D01*
X52639454Y-21599500D01*
X52639449Y-21599500D01*
X52460589Y-21627829D01*
X52288363Y-21683787D01*
X52288360Y-21683788D01*
X52127002Y-21766006D01*
X51980505Y-21872441D01*
X51980500Y-21872445D01*
X51852445Y-22000500D01*
X51852441Y-22000505D01*
X51746006Y-22147002D01*
X51663788Y-22308360D01*
X51663787Y-22308363D01*
X51607829Y-22480589D01*
X51586972Y-22612271D01*
X51557042Y-22675405D01*
X51497731Y-22712336D01*
X51427868Y-22711338D01*
X51369636Y-22672728D01*
X51341522Y-22608764D01*
X51340499Y-22592872D01*
X51340499Y-21855143D01*
X51340499Y-21855136D01*
X51338561Y-21838424D01*
X51337586Y-21830012D01*
X51337585Y-21830010D01*
X51337585Y-21830009D01*
X51292206Y-21727235D01*
X51212765Y-21647794D01*
X51212763Y-21647793D01*
X51109992Y-21602415D01*
X51084865Y-21599500D01*
X49295143Y-21599500D01*
X49295117Y-21599502D01*
X49270012Y-21602413D01*
X49270008Y-21602415D01*
X49167235Y-21647793D01*
X49087794Y-21727234D01*
X49042415Y-21830006D01*
X49042415Y-21830008D01*
X49039500Y-21855131D01*
X29471831Y-21855131D01*
X29457819Y-21844951D01*
X29457818Y-21844950D01*
X29457816Y-21844949D01*
X29268412Y-21748443D01*
X29066243Y-21682754D01*
X29066241Y-21682753D01*
X29066240Y-21682753D01*
X28904957Y-21657208D01*
X28856287Y-21649500D01*
X28643713Y-21649500D01*
X28595042Y-21657208D01*
X28433760Y-21682753D01*
X28231585Y-21748444D01*
X28042179Y-21844951D01*
X27870213Y-21969890D01*
X27719890Y-22120213D01*
X27594951Y-22292179D01*
X27498444Y-22481585D01*
X27432753Y-22683760D01*
X27399500Y-22893713D01*
X26256929Y-22893713D01*
X26257677Y-22881354D01*
X26268271Y-22706205D01*
X26270076Y-22691340D01*
X26275920Y-22659454D01*
X26321780Y-22409197D01*
X26325364Y-22394663D01*
X26410696Y-22120822D01*
X26415998Y-22106841D01*
X26533731Y-21845249D01*
X26540676Y-21832016D01*
X26689080Y-21586526D01*
X26697567Y-21574230D01*
X26874480Y-21348417D01*
X26884395Y-21337226D01*
X27087226Y-21134395D01*
X27098417Y-21124480D01*
X27324230Y-20947567D01*
X27336526Y-20939080D01*
X27582016Y-20790676D01*
X27595249Y-20783731D01*
X27856841Y-20665998D01*
X27870822Y-20660696D01*
X28144668Y-20575362D01*
X28159197Y-20571780D01*
X28441344Y-20520075D01*
X28456201Y-20518271D01*
X28746264Y-20500726D01*
X28753751Y-20500500D01*
X28815892Y-20500500D01*
X62684108Y-20500500D01*
X62746249Y-20500500D01*
X62753736Y-20500726D01*
G37*
%TD.AperFunction*%
%TD*%
%TA.AperFunction,Conductor*%
%TO.N,VBB*%
G36*
X48015677Y-25769685D02*
G01*
X48036319Y-25786319D01*
X48463681Y-26213681D01*
X48497166Y-26275004D01*
X48500000Y-26301362D01*
X48500000Y-32500000D01*
X48499999Y-32500000D01*
X49450400Y-33212800D01*
X49492221Y-33268771D01*
X49500000Y-33312000D01*
X49500000Y-70698638D01*
X49480315Y-70765677D01*
X49463681Y-70786319D01*
X49036319Y-71213681D01*
X48974996Y-71247166D01*
X48948638Y-71250000D01*
X48041333Y-71250000D01*
X47974294Y-71230315D01*
X47966933Y-71225200D01*
X47951574Y-71213681D01*
X47049600Y-70537200D01*
X47007779Y-70481229D01*
X47000000Y-70438000D01*
X47000000Y-68649875D01*
X47019685Y-68582836D01*
X47072489Y-68537081D01*
X47076548Y-68535314D01*
X47152856Y-68503706D01*
X47152856Y-68503705D01*
X47152863Y-68503703D01*
X47292162Y-68410626D01*
X47410626Y-68292162D01*
X47503703Y-68152863D01*
X47567816Y-67998082D01*
X47600500Y-67833767D01*
X47600500Y-67666233D01*
X47567816Y-67501918D01*
X47503703Y-67347137D01*
X47472537Y-67300494D01*
X47410626Y-67207837D01*
X47292162Y-67089373D01*
X47152862Y-66996296D01*
X47076546Y-66964685D01*
X47022143Y-66920843D01*
X47000079Y-66854549D01*
X47000000Y-66850124D01*
X47000000Y-62253874D01*
X47019685Y-62186835D01*
X47038559Y-62165638D01*
X47037854Y-62164933D01*
X47042158Y-62160628D01*
X47042162Y-62160626D01*
X47160626Y-62042162D01*
X47253703Y-61902863D01*
X47317816Y-61748082D01*
X47350500Y-61583767D01*
X47350500Y-61416233D01*
X47317816Y-61251918D01*
X47253703Y-61097137D01*
X47222537Y-61050494D01*
X47160626Y-60957837D01*
X47037855Y-60835066D01*
X47039501Y-60833419D01*
X47005994Y-60784211D01*
X47000000Y-60746124D01*
X47000000Y-47649875D01*
X47019685Y-47582836D01*
X47072489Y-47537081D01*
X47076548Y-47535314D01*
X47152856Y-47503706D01*
X47152856Y-47503705D01*
X47152863Y-47503703D01*
X47292162Y-47410626D01*
X47410626Y-47292162D01*
X47503703Y-47152863D01*
X47567816Y-46998082D01*
X47600500Y-46833767D01*
X47600500Y-46666233D01*
X47567816Y-46501918D01*
X47503703Y-46347137D01*
X47472537Y-46300494D01*
X47410626Y-46207837D01*
X47292162Y-46089373D01*
X47152862Y-45996296D01*
X47076546Y-45964685D01*
X47022143Y-45920843D01*
X47000079Y-45854549D01*
X47000000Y-45850124D01*
X47000000Y-41386270D01*
X47019685Y-41319231D01*
X47072489Y-41273476D01*
X47076536Y-41271713D01*
X47143243Y-41244083D01*
X47282542Y-41151006D01*
X47401006Y-41032542D01*
X47494083Y-40893243D01*
X47558196Y-40738462D01*
X47590880Y-40574147D01*
X47590880Y-40406613D01*
X47558196Y-40242298D01*
X47494083Y-40087517D01*
X47462917Y-40040874D01*
X47401006Y-39948217D01*
X47282542Y-39829753D01*
X47143240Y-39736675D01*
X47076547Y-39709050D01*
X47022143Y-39665209D01*
X47000079Y-39598914D01*
X47000000Y-39594489D01*
X47000000Y-38499999D01*
X46763091Y-38026181D01*
X46750000Y-37970727D01*
X46750000Y-35750000D01*
X46000000Y-35000000D01*
X44287544Y-35000000D01*
X44220505Y-34980315D01*
X44218761Y-34979174D01*
X43555217Y-34536811D01*
X43510356Y-34483246D01*
X43500000Y-34433637D01*
X43500000Y-26301362D01*
X43519685Y-26234323D01*
X43536319Y-26213681D01*
X43963681Y-25786319D01*
X44025004Y-25752834D01*
X44051362Y-25750000D01*
X47948638Y-25750000D01*
X48015677Y-25769685D01*
G37*
%TD.AperFunction*%
%TD*%
M02*
