M48
; DRILL file {KiCad 9.0.6} date 2025-12-21T17:35:10-0800
; FORMAT={-:-/ absolute / metric / decimal}
; #@! TF.CreationDate,2025-12-21T17:35:10-08:00
; #@! TF.GenerationSoftware,Kicad,Pcbnew,9.0.6
; #@! TF.FileFunction,Plated,1,2,PTH
FMAT,2
METRIC
; #@! TA.AperFunction,Plated,PTH,ViaDrill
T1C0.300
; #@! TA.AperFunction,Plated,PTH,ComponentDrill
T2C1.000
%
G90
G05
T1
X29.0Y-29.75
X29.0Y-31.25
X30.5Y-29.75
X30.5Y-31.25
X30.5Y-57.36
X32.0Y-45.5
X32.75Y-46.25
X32.75Y-51.25
X33.5Y-44.0
X33.562Y-46.938
X34.5Y-42.0
X34.5Y-48.0
X34.5Y-58.25
X34.5Y-59.78
X34.747Y-51.759
X34.78Y-45.72
X35.066Y-49.934
X35.25Y-48.75
X35.25Y-68.0
X35.5Y-50.75
X35.75Y-58.25
X35.75Y-59.78
X35.78Y-46.72
X36.5Y-45.0
X37.0Y-58.25
X37.0Y-59.78
X40.0Y-48.5
X41.0Y-53.25
X41.0Y-54.0
X41.0Y-54.75
X41.25Y-59.5
X41.25Y-68.0
X42.0Y-45.75
X42.0Y-48.25
X42.0Y-57.5
X42.25Y-67.0
X44.25Y-32.5
X44.75Y-26.5
X44.75Y-27.5
X44.75Y-28.5
X45.5Y-32.5
X45.75Y-37.0
X45.75Y-58.0
X46.0Y-30.5
X46.0Y-31.5
X46.5Y-61.5
X46.74Y-40.49
X46.75Y-46.75
X46.75Y-67.75
X47.99Y-39.24
X48.5Y-70.425
X48.604Y-59.925
X48.75Y-49.25
X51.0Y-52.75
X51.075Y-42.325
X51.075Y-63.325
X52.0Y-76.25
X52.25Y-30.25
X52.25Y-31.25
X52.25Y-32.25
X52.5Y-52.75
X52.575Y-42.325
X52.575Y-63.325
X53.5Y-32.5
X53.5Y-76.25
X54.0Y-55.75
X54.075Y-45.325
X54.075Y-66.325
X55.0Y-32.575
X55.5Y-55.75
X55.575Y-45.325
X55.575Y-66.325
X57.75Y-38.5
X57.75Y-49.0
X57.75Y-59.5
X58.0Y-70.0
T2
X28.5Y-44.01
X28.5Y-46.55
X28.5Y-49.09
X28.5Y-51.63
X28.5Y-54.17
X28.5Y-56.71
X28.5Y-59.25
X28.5Y-61.79
X50.19Y-22.75
X52.73Y-22.75
X55.27Y-22.75
X57.81Y-22.75
X63.25Y-35.362
X63.25Y-37.902
X63.25Y-40.442
X63.25Y-42.982
X63.25Y-45.523
X63.25Y-48.062
X63.25Y-50.602
X63.25Y-53.142
X63.25Y-55.682
X63.25Y-58.222
X63.25Y-60.762
X63.25Y-63.302
X63.25Y-65.843
X63.25Y-68.382
X63.25Y-70.922
X63.25Y-73.462
M30
