%TF.GenerationSoftware,KiCad,Pcbnew,9.0.6*%
%TF.CreationDate,2025-12-21T17:34:40-08:00*%
%TF.ProjectId,A3909 Prototyping,41333930-3920-4507-926f-746f74797069,rev?*%
%TF.SameCoordinates,Original*%
%TF.FileFunction,Paste,Top*%
%TF.FilePolarity,Positive*%
%FSLAX46Y46*%
G04 Gerber Fmt 4.6, Leading zero omitted, Abs format (unit mm)*
G04 Created by KiCad (PCBNEW 9.0.6) date 2025-12-21 17:34:40*
%MOMM*%
%LPD*%
G01*
G04 APERTURE LIST*
G04 Aperture macros list*
%AMRoundRect*
0 Rectangle with rounded corners*
0 $1 Rounding radius*
0 $2 $3 $4 $5 $6 $7 $8 $9 X,Y pos of 4 corners*
0 Add a 4 corners polygon primitive as box body*
4,1,4,$2,$3,$4,$5,$6,$7,$8,$9,$2,$3,0*
0 Add four circle primitives for the rounded corners*
1,1,$1+$1,$2,$3*
1,1,$1+$1,$4,$5*
1,1,$1+$1,$6,$7*
1,1,$1+$1,$8,$9*
0 Add four rect primitives between the rounded corners*
20,1,$1+$1,$2,$3,$4,$5,0*
20,1,$1+$1,$4,$5,$6,$7,0*
20,1,$1+$1,$6,$7,$8,$9,0*
20,1,$1+$1,$8,$9,$2,$3,0*%
G04 Aperture macros list end*
%ADD10RoundRect,0.140000X-0.140000X-0.170000X0.140000X-0.170000X0.140000X0.170000X-0.140000X0.170000X0*%
%ADD11RoundRect,0.250000X0.325000X0.650000X-0.325000X0.650000X-0.325000X-0.650000X0.325000X-0.650000X0*%
%ADD12RoundRect,0.250001X2.049999X0.799999X-2.049999X0.799999X-2.049999X-0.799999X2.049999X-0.799999X0*%
%ADD13RoundRect,0.140000X0.140000X0.170000X-0.140000X0.170000X-0.140000X-0.170000X0.140000X-0.170000X0*%
%ADD14RoundRect,0.250000X-0.325000X-0.650000X0.325000X-0.650000X0.325000X0.650000X-0.325000X0.650000X0*%
%ADD15RoundRect,0.250000X-1.000000X-0.900000X1.000000X-0.900000X1.000000X0.900000X-1.000000X0.900000X0*%
%ADD16R,1.525000X0.650000*%
%ADD17RoundRect,0.135000X-0.135000X-0.185000X0.135000X-0.185000X0.135000X0.185000X-0.135000X0.185000X0*%
%ADD18RoundRect,0.135000X0.185000X-0.135000X0.185000X0.135000X-0.185000X0.135000X-0.185000X-0.135000X0*%
%ADD19RoundRect,0.135000X-0.185000X0.135000X-0.185000X-0.135000X0.185000X-0.135000X0.185000X0.135000X0*%
%ADD20RoundRect,0.150000X0.825000X0.150000X-0.825000X0.150000X-0.825000X-0.150000X0.825000X-0.150000X0*%
G04 APERTURE END LIST*
D10*
%TO.C,C1*%
X48730000Y-38000000D03*
X47770000Y-38000000D03*
%TD*%
%TO.C,C2*%
X48730000Y-48250000D03*
X47770000Y-48250000D03*
%TD*%
%TO.C,C3*%
X48730000Y-59000000D03*
X47770000Y-59000000D03*
%TD*%
%TO.C,C4*%
X48730000Y-69500000D03*
X47770000Y-69500000D03*
%TD*%
D11*
%TO.C,C5*%
X47525000Y-31250000D03*
X50475000Y-31250000D03*
%TD*%
D12*
%TO.C,C6*%
X33750000Y-30500000D03*
X42550000Y-30500000D03*
%TD*%
D13*
%TO.C,C7*%
X38020000Y-48500000D03*
X38980000Y-48500000D03*
%TD*%
D10*
%TO.C,C8*%
X37230000Y-68000000D03*
X36270000Y-68000000D03*
%TD*%
D14*
%TO.C,C9*%
X39475000Y-54000000D03*
X36525000Y-54000000D03*
%TD*%
D15*
%TO.C,D1*%
X51250000Y-27500000D03*
X46950000Y-27500000D03*
%TD*%
D16*
%TO.C,IC1*%
X56037000Y-47075000D03*
X56037000Y-48075000D03*
X56037000Y-49075000D03*
X56037000Y-50075000D03*
X56037000Y-51075000D03*
X50613000Y-51075000D03*
X50613000Y-50075000D03*
X50613000Y-49075000D03*
X50613000Y-48075000D03*
X50613000Y-47075000D03*
%TD*%
%TO.C,IC2*%
X56037000Y-36575000D03*
X56037000Y-37575000D03*
X56037000Y-38575000D03*
X56037000Y-39575000D03*
X56037000Y-40575000D03*
X50613000Y-40575000D03*
X50613000Y-39575000D03*
X50613000Y-38575000D03*
X50613000Y-37575000D03*
X50613000Y-36575000D03*
%TD*%
%TO.C,IC3*%
X56037000Y-68075000D03*
X56037000Y-69075000D03*
X56037000Y-70075000D03*
X56037000Y-71075000D03*
X56037000Y-72075000D03*
X50613000Y-72075000D03*
X50613000Y-71075000D03*
X50613000Y-70075000D03*
X50613000Y-69075000D03*
X50613000Y-68075000D03*
%TD*%
%TO.C,IC4*%
X56037000Y-57575000D03*
X56037000Y-58575000D03*
X56037000Y-59575000D03*
X56037000Y-60575000D03*
X56037000Y-61575000D03*
X50613000Y-61575000D03*
X50613000Y-60575000D03*
X50613000Y-59575000D03*
X50613000Y-58575000D03*
X50613000Y-57575000D03*
%TD*%
D17*
%TO.C,R1*%
X33010000Y-41250000D03*
X31990000Y-41250000D03*
%TD*%
%TO.C,R2*%
X33010000Y-42500000D03*
X31990000Y-42500000D03*
%TD*%
D18*
%TO.C,R3*%
X52075000Y-74065000D03*
X52075000Y-75085000D03*
%TD*%
%TO.C,R4*%
X53575000Y-74065000D03*
X53575000Y-75085000D03*
%TD*%
D19*
%TO.C,R5*%
X52575000Y-65335000D03*
X52575000Y-64315000D03*
%TD*%
%TO.C,R6*%
X51075000Y-65335000D03*
X51075000Y-64315000D03*
%TD*%
D18*
%TO.C,R7*%
X54075000Y-64315000D03*
X54075000Y-65335000D03*
%TD*%
%TO.C,R8*%
X55575000Y-64315000D03*
X55575000Y-65335000D03*
%TD*%
D19*
%TO.C,R9*%
X52575000Y-54835000D03*
X52575000Y-53815000D03*
%TD*%
%TO.C,R10*%
X51075000Y-54835000D03*
X51075000Y-53815000D03*
%TD*%
D18*
%TO.C,R11*%
X54075000Y-53815000D03*
X54075000Y-54835000D03*
%TD*%
%TO.C,R12*%
X55575000Y-53815000D03*
X55575000Y-54835000D03*
%TD*%
D19*
%TO.C,R13*%
X52575000Y-44335000D03*
X52575000Y-43315000D03*
%TD*%
%TO.C,R14*%
X51075000Y-44335000D03*
X51075000Y-43315000D03*
%TD*%
D18*
%TO.C,R15*%
X54075000Y-43315000D03*
X54075000Y-44335000D03*
%TD*%
%TO.C,R16*%
X55575000Y-43315000D03*
X55575000Y-44335000D03*
%TD*%
D19*
%TO.C,R17*%
X55000000Y-34585000D03*
X55000000Y-33565000D03*
%TD*%
%TO.C,R18*%
X53500000Y-34585000D03*
X53500000Y-33565000D03*
%TD*%
D20*
%TO.C,U1*%
X39600000Y-47020000D03*
X39600000Y-45750000D03*
X39600000Y-44480000D03*
X39600000Y-43210000D03*
X39600000Y-41940000D03*
X39600000Y-40670000D03*
X39600000Y-39400000D03*
X39600000Y-38130000D03*
X44550000Y-38130000D03*
X44550000Y-39400000D03*
X44550000Y-40670000D03*
X44550000Y-41940000D03*
X44550000Y-43210000D03*
X44550000Y-44480000D03*
X44550000Y-45750000D03*
X44550000Y-47020000D03*
%TD*%
%TO.C,U2*%
X39600000Y-68020000D03*
X39600000Y-66750000D03*
X39600000Y-65480000D03*
X39600000Y-64210000D03*
X39600000Y-62940000D03*
X39600000Y-61670000D03*
X39600000Y-60400000D03*
X39600000Y-59130000D03*
X44550000Y-59130000D03*
X44550000Y-60400000D03*
X44550000Y-61670000D03*
X44550000Y-62940000D03*
X44550000Y-64210000D03*
X44550000Y-65480000D03*
X44550000Y-66750000D03*
X44550000Y-68020000D03*
%TD*%
M02*
